<?xml version="1.0" encoding="UTF-8"?>
<!DOCTYPE svg PUBLIC "-//W3C//DTD SVG 1.1//EN" "http://www.w3.org/Graphics/SVG/1.1/DTD/svg11.dtd">
<svg xmlns="http://www.w3.org/2000/svg" version="1.1" width="1024px" height="1024px" style="shape-rendering:geometricPrecision; text-rendering:geometricPrecision; image-rendering:optimizeQuality; fill-rule:evenodd; clip-rule:evenodd" xmlns:xlink="http://www.w3.org/1999/xlink">
<g><path style="opacity:1" fill="#331e12" d="M 643.5,268.5 C 640.106,267.598 636.773,267.265 633.5,267.5C 628.91,265.561 624.577,263.227 620.5,260.5C 620.027,259.094 619.027,258.427 617.5,258.5C 615.007,257.203 612.34,256.203 609.5,255.5C 607.309,257.892 605.642,260.558 604.5,263.5C 602.113,265.092 600.78,267.425 600.5,270.5C 601.325,271.386 602.325,271.719 603.5,271.5C 610.011,273.672 615.845,277.005 621,281.5C 623.486,287.556 621.653,291.556 615.5,293.5C 613.565,292.85 611.565,292.517 609.5,292.5C 608.71,291.599 607.71,290.932 606.5,290.5C 603.327,289.83 600.327,288.664 597.5,287C 596.167,286.333 594.833,286.333 593.5,287C 588.679,294.808 584.513,302.974 581,311.5C 576.94,315.973 572.44,316.473 567.5,313C 565.703,311.406 564.703,309.406 564.5,307C 565.898,301.373 568.231,296.207 571.5,291.5C 573.048,291.179 573.715,290.179 573.5,288.5C 574.552,288.649 575.552,288.483 576.5,288C 575.663,286.989 575.33,285.822 575.5,284.5C 582.398,269.037 589.565,253.704 597,238.5C 598.947,234.443 602.114,232.943 606.5,234C 618.469,240.318 630.469,246.652 642.5,253C 648.649,257.983 648.982,263.15 643.5,268.5 Z"/></g>
<g><path style="opacity:0.259" fill="#bcb3a6" d="M 617.5,258.5 C 619.027,258.427 620.027,259.094 620.5,260.5C 618.973,260.573 617.973,259.906 617.5,258.5 Z"/></g>
<g><path style="opacity:1" fill="#372417" d="M 500.5,210.5 C 516.17,210.333 531.837,210.5 547.5,211C 555.134,211.766 558.3,215.933 557,223.5C 556.215,225.286 555.049,226.786 553.5,228C 540.258,228.176 527.092,228.676 514,229.5C 513.333,236.167 513.333,242.833 514,249.5C 514.5,250 515,250.5 515.5,251C 522.414,251.811 529.248,251.645 536,250.5C 544.681,252.191 547.347,257.191 544,265.5C 543.097,266.701 541.931,267.535 540.5,268C 531.506,268.5 522.506,268.666 513.5,268.5C 513.902,279.261 513.236,289.928 511.5,300.5C 506.631,304.461 501.798,304.461 497,300.5C 496.667,299.5 496.333,298.5 496,297.5C 495.333,270.5 495.333,243.5 496,216.5C 496.599,213.746 498.099,211.746 500.5,210.5 Z"/></g>
<g><path style="opacity:1" fill="#706253" d="M 604.5,263.5 C 604.039,265.55 603.372,267.55 602.5,269.5C 602.863,270.183 603.196,270.85 603.5,271.5C 602.325,271.719 601.325,271.386 600.5,270.5C 600.78,267.425 602.113,265.092 604.5,263.5 Z"/></g>
<g><path style="opacity:1" fill="#7e6a5d" d="M 633.5,267.5 C 636.773,267.265 640.106,267.598 643.5,268.5C 639.908,271.199 636.574,270.865 633.5,267.5 Z"/></g>
<g><path style="opacity:1" fill="#5a4939" d="M 386.5,282.5 C 385.312,283.684 384.145,283.684 383,282.5C 382.193,286.449 381.693,286.449 381.5,282.5C 377.881,283.947 373.548,284.947 368.5,285.5C 371.6,283.202 375.1,281.535 379,280.5C 380.333,281.833 381.667,281.833 383,280.5C 384.302,281.085 385.469,281.751 386.5,282.5 Z"/></g>
<g><path style="opacity:1" fill="#6d5a4b" d="M 575.5,284.5 C 575.33,285.822 575.663,286.989 576.5,288C 575.552,288.483 574.552,288.649 573.5,288.5C 573.715,290.179 573.048,291.179 571.5,291.5C 572.079,288.669 573.412,286.336 575.5,284.5 Z"/></g>
<g><path style="opacity:1" fill="#452d1f" d="M 696.5,279.5 C 698.582,279.624 700.082,280.624 701,282.5C 702.336,290.317 699.169,294.983 691.5,296.5C 691.023,291.258 691.856,286.258 694,281.5C 694.995,280.934 695.828,280.267 696.5,279.5 Z"/></g>
<g><path style="opacity:0.024" fill="#d9bfb6" d="M 606.5,290.5 C 607.71,290.932 608.71,291.599 609.5,292.5C 607.821,292.715 606.821,292.048 606.5,290.5 Z"/></g>
<g><path style="opacity:0.937" fill="#8c7b6c" d="M 609.5,292.5 C 611.565,292.517 613.565,292.85 615.5,293.5C 613.402,294.484 611.402,294.151 609.5,292.5 Z"/></g>
<g><path style="opacity:0.027" fill="#e1cabf" d="M 380.5,298.5 C 380.027,299.906 379.027,300.573 377.5,300.5C 377.973,299.094 378.973,298.427 380.5,298.5 Z"/></g>
<g><path style="opacity:1" fill="#4a3425" d="M 704.5,298.5 C 707.941,298.301 711.274,298.801 714.5,300C 715.876,302.54 715.21,304.54 712.5,306C 707.49,307.721 702.824,307.054 698.5,304C 699.923,301.469 701.923,299.635 704.5,298.5 Z"/></g>
<g><path style="opacity:0.933" fill="#b57e65" d="M 515.5,327.5 C 504.696,322.541 493.362,321.207 481.5,323.5C 492.289,319.139 502.955,319.639 513.5,325C 514.381,325.708 515.047,326.542 515.5,327.5 Z"/></g>
<g><path style="opacity:1" fill="#311d11" d="M 584.5,375.5 C 584.657,374.127 584.49,372.793 584,371.5C 580.678,374.656 577.512,377.989 574.5,381.5C 572.155,378.779 570.322,379.112 569,382.5C 567.439,379.627 565.272,378.961 562.5,380.5C 569.576,367.848 568.576,355.848 559.5,344.5C 558.177,342.314 556.177,340.814 553.5,340C 544.094,338.268 535.761,340.434 528.5,346.5C 527.914,346.291 527.414,345.957 527,345.5C 526.667,347.167 526.333,348.833 526,350.5C 524.885,345.493 524.052,340.493 523.5,335.5C 523.5,334.833 523.5,334.167 523.5,333.5C 527.521,326.643 533.521,322.476 541.5,321C 570.137,319.63 585.804,333.296 588.5,362C 587.998,366.859 586.665,371.359 584.5,375.5 Z"/></g>
<g><path style="opacity:1" fill="#b45f44" d="M 515.5,327.5 C 518.168,329.336 520.334,331.669 522,334.5C 522.383,333.944 522.883,333.611 523.5,333.5C 523.5,334.167 523.5,334.833 523.5,335.5C 521.544,341.412 520.877,347.745 521.5,354.5C 521.5,354.833 521.5,355.167 521.5,355.5C 513.629,342.042 502.296,338.209 487.5,344C 474.087,356.646 472.92,370.479 484,385.5C 495.624,398.291 507.791,410.625 520.5,422.5C 521.167,428.988 521.833,435.321 522.5,441.5C 523.5,441.5 524.5,441.5 525.5,441.5C 524.418,444.465 522.751,444.965 520.5,443C 514.952,437.955 509.952,432.455 505.5,426.5C 503.192,421.563 499.692,417.563 495,414.5C 487.147,405.545 478.814,396.878 470,388.5C 466.294,384.534 463.294,380.201 461,375.5C 460.058,370.547 459.558,365.547 459.5,360.5C 461.577,353.818 462.911,346.818 463.5,339.5C 467.29,331.712 473.29,326.379 481.5,323.5C 493.362,321.207 504.696,322.541 515.5,327.5 Z"/></g>
<g><path style="opacity:1" fill="#342013" d="M 386.5,282.5 C 390.134,283.639 392.134,286.139 392.5,290C 390.483,295.518 386.483,298.351 380.5,298.5C 378.973,298.427 377.973,299.094 377.5,300.5C 375.167,303.003 373.001,305.669 371,308.5C 366.534,323.787 371.367,334.953 385.5,342C 393.268,343.969 399.435,341.802 404,335.5C 403.139,326.033 407.306,321.533 416.5,322C 418.907,322.257 420.573,323.424 421.5,325.5C 422.114,329.135 422.448,332.802 422.5,336.5C 416.162,356.679 402.496,364.512 381.5,360C 368.878,356.264 359.712,348.431 354,336.5C 347.597,319.522 350.097,304.022 361.5,290C 363.551,287.98 365.884,286.48 368.5,285.5C 373.548,284.947 377.881,283.947 381.5,282.5C 381.693,286.449 382.193,286.449 383,282.5C 384.145,283.684 385.312,283.684 386.5,282.5 Z"/></g>
<g><path style="opacity:0.4" fill="#b1a193" d="M 421.5,325.5 C 423.569,329.044 423.902,332.71 422.5,336.5C 422.448,332.802 422.114,329.135 421.5,325.5 Z"/></g>
<g><path style="opacity:1" fill="#311e12" d="M 678.5,311.5 C 676.073,311.523 673.74,312.023 671.5,313C 672.167,313.333 672.833,313.667 673.5,314C 672.234,314.309 671.067,314.809 670,315.5C 669.689,317.556 669.189,319.556 668.5,321.5C 669.325,322.386 670.325,322.719 671.5,322.5C 676.76,326.956 681.593,331.956 686,337.5C 687.234,346.408 683.401,349.908 674.5,348C 668.783,342.721 662.95,337.554 657,332.5C 652.552,334.614 649.052,337.781 646.5,342C 652.956,349.457 659.789,356.624 667,363.5C 668.742,370.325 666.076,374.659 659,376.5C 657.107,375.804 655.274,374.97 653.5,374C 643.667,364.833 633.833,355.667 624,346.5C 622.15,343.537 622.15,340.537 624,337.5C 639.786,322.051 655.953,306.884 672.5,292C 676.334,289.963 680.001,290.296 683.5,293C 691.333,302.167 699.833,310.667 709,318.5C 713.755,326.261 711.755,331.261 703,333.5C 701.933,332.809 700.766,332.309 699.5,332C 692.605,324.937 685.605,318.103 678.5,311.5 Z"/></g>
<g><path style="opacity:1" fill="#5f4c40" d="M 678.5,311.5 C 675.896,313.6 673.396,315.933 671,318.5C 670.421,319.928 670.588,321.262 671.5,322.5C 670.325,322.719 669.325,322.386 668.5,321.5C 669.189,319.556 669.689,317.556 670,315.5C 671.067,314.809 672.234,314.309 673.5,314C 672.833,313.667 672.167,313.333 671.5,313C 673.74,312.023 676.073,311.523 678.5,311.5 Z"/></g>
<g><path style="opacity:1" fill="#3b1809" d="M 523.5,335.5 C 524.052,340.493 524.885,345.493 526,350.5C 526.333,348.833 526.667,347.167 527,345.5C 527.414,345.957 527.914,346.291 528.5,346.5C 535.761,340.434 544.094,338.268 553.5,340C 556.177,340.814 558.177,342.314 559.5,344.5C 558.833,344.5 558.167,344.5 557.5,344.5C 556.4,343.442 555.066,342.608 553.5,342C 549.5,341.333 545.5,341.333 541.5,342C 534.165,345.671 528.499,351.005 524.5,358C 524.167,358.167 523.833,358.333 523.5,358.5C 522.828,357.051 522.161,355.718 521.5,354.5C 520.877,347.745 521.544,341.412 523.5,335.5 Z"/></g>
<g><path style="opacity:1" fill="#321f12" d="M 305.5,340.5 C 306.683,344.159 306.683,347.825 305.5,351.5C 304.281,352.646 302.948,353.646 301.5,354.5C 302.791,355.527 302.791,356.527 301.5,357.5C 293.808,361.42 287.974,359.42 284,351.5C 282.991,337.859 289.158,333.026 302.5,337C 303.71,338.039 304.71,339.206 305.5,340.5 Z"/></g>
<g><path style="opacity:1" fill="#352316" d="M 748.5,335.5 C 763.656,334.812 768.49,341.479 763,355.5C 758.063,359.722 752.563,360.556 746.5,358C 738.584,349.803 739.251,342.303 748.5,335.5 Z"/></g>
<g><path style="opacity:1" fill="#ae715a" d="M 463.5,339.5 C 462.911,346.818 461.577,353.818 459.5,360.5C 459.558,365.547 460.058,370.547 461,375.5C 463.294,380.201 466.294,384.534 470,388.5C 478.814,396.878 487.147,405.545 495,414.5C 499.692,417.563 503.192,421.563 505.5,426.5C 493.583,415.084 481.749,403.417 470,391.5C 457.52,378.238 454.187,362.904 460,345.5C 460.716,343.121 461.883,341.121 463.5,339.5 Z"/></g>
<g><path style="opacity:1" fill="#963f27" d="M 521.5,355.5 C 521.117,360.468 522.784,361.468 526.5,358.5C 527.965,359.609 528.965,359.109 529.5,357C 531.368,353.059 534.368,349.392 538.5,346C 540.154,345.392 541.821,344.892 543.5,344.5C 545.714,345.874 548.047,347.041 550.5,348C 559.292,361.263 558.459,373.763 548,385.5C 540.306,393.526 532.639,401.526 525,409.5C 524.654,411.218 524.154,412.885 523.5,414.5C 524.309,416.071 524.643,417.738 524.5,419.5C 523.778,419.918 523.278,420.584 523,421.5C 522.5,428.158 522.334,434.825 522.5,441.5C 521.833,435.321 521.167,428.988 520.5,422.5C 507.791,410.625 495.624,398.291 484,385.5C 472.92,370.479 474.087,356.646 487.5,344C 502.296,338.209 513.629,342.042 521.5,355.5 Z"/></g>
<g><path style="opacity:1" fill="#843f2a" d="M 557.5,344.5 C 554.22,343.631 550.887,342.964 547.5,342.5C 545.667,342.585 544.334,343.252 543.5,344.5C 541.821,344.892 540.154,345.392 538.5,346C 534.368,349.392 531.368,353.059 529.5,357C 528.965,359.109 527.965,359.609 526.5,358.5C 522.784,361.468 521.117,360.468 521.5,355.5C 521.5,355.167 521.5,354.833 521.5,354.5C 522.161,355.718 522.828,357.051 523.5,358.5C 523.833,358.333 524.167,358.167 524.5,358C 528.499,351.005 534.165,345.671 541.5,342C 545.5,341.333 549.5,341.333 553.5,342C 555.066,342.608 556.4,343.442 557.5,344.5 Z"/></g>
<g><path style="opacity:1" fill="#6e5c4e" d="M 305.5,340.5 C 309.272,344.849 309.438,349.515 306,354.5C 304.871,356.141 303.371,357.141 301.5,357.5C 302.791,356.527 302.791,355.527 301.5,354.5C 302.948,353.646 304.281,352.646 305.5,351.5C 306.683,347.825 306.683,344.159 305.5,340.5 Z"/></g>
<g><path style="opacity:1" fill="#362317" d="M 712.5,362.5 C 726.838,364.178 730.838,371.511 724.5,384.5C 718.296,389.78 712.129,389.78 706,384.5C 700.219,374.685 702.385,367.352 712.5,362.5 Z"/></g>
<g><path style="opacity:0.38" fill="#a99e7f" d="M 343.5,368.5 C 344.906,368.973 345.573,369.973 345.5,371.5C 344.094,371.027 343.427,370.027 343.5,368.5 Z"/></g>
<g><path style="opacity:1" fill="#7b2e18" d="M 557.5,344.5 C 558.167,344.5 558.833,344.5 559.5,344.5C 568.576,355.848 569.576,367.848 562.5,380.5C 550.477,394.189 537.81,407.189 524.5,419.5C 524.643,417.738 524.309,416.071 523.5,414.5C 524.154,412.885 524.654,411.218 525,409.5C 532.639,401.526 540.306,393.526 548,385.5C 558.459,373.763 559.292,361.263 550.5,348C 548.047,347.041 545.714,345.874 543.5,344.5C 544.334,343.252 545.667,342.585 547.5,342.5C 550.887,342.964 554.22,343.631 557.5,344.5 Z"/></g>
<g><path style="opacity:1" fill="#2f1e12" d="M 343.5,368.5 C 343.427,370.027 344.094,371.027 345.5,371.5C 346.986,381.196 342.819,386.862 333,388.5C 330.779,388.607 328.946,387.94 327.5,386.5C 326.047,385.175 326.381,384.342 328.5,384C 325.298,382.213 324.131,379.713 325,376.5C 323.535,377.369 322.369,376.869 321.5,375C 323.369,373.56 325.035,371.893 326.5,370C 324.069,368.568 324.069,367.068 326.5,365.5C 331.82,361.538 337.153,361.705 342.5,366C 343.252,366.671 343.586,367.504 343.5,368.5 Z"/></g>
<g><path style="opacity:1" fill="#493b2b" d="M 326.5,365.5 C 324.069,367.068 324.069,368.568 326.5,370C 325.035,371.893 323.369,373.56 321.5,375C 322.369,376.869 323.535,377.369 325,376.5C 324.131,379.713 325.298,382.213 328.5,384C 326.381,384.342 326.047,385.175 327.5,386.5C 321.008,382.521 319.174,376.855 322,369.5C 322.876,367.365 324.376,366.031 326.5,365.5 Z"/></g>
<g><path style="opacity:1" fill="#5b5a4c" d="M 583.5,378.5 C 581.662,383.665 578.662,387.999 574.5,391.5C 574.703,389.956 575.37,388.622 576.5,387.5C 575.477,385.105 576.477,384.105 579.5,384.5C 579.5,382.833 579.5,381.167 579.5,379.5C 580.959,379.567 582.292,379.234 583.5,378.5 Z"/></g>
<g><path style="opacity:1" fill="#321f12" d="M 683.5,458.5 C 678.786,458.827 674.12,458.493 669.5,457.5C 668.662,452.862 668.496,448.195 669,443.5C 668.13,447.824 667.297,452.158 666.5,456.5C 662.889,455.738 659.222,455.238 655.5,455C 658.146,454.503 660.813,454.336 663.5,454.5C 663.5,453.5 663.5,452.5 663.5,451.5C 660.223,451.216 657.057,451.549 654,452.5C 654,451.167 654,449.833 654,448.5C 653.292,449.381 652.458,450.047 651.5,450.5C 656.081,440.572 654.914,431.238 648,422.5C 633.765,407.519 616.265,399.019 595.5,397C 594.572,396.612 593.905,395.945 593.5,395C 597.253,389.174 601.919,384.174 607.5,380C 632.67,382.325 651.837,394.158 665,415.5C 667.435,420.236 669.101,425.236 670,430.5C 670.5,439.494 670.666,448.494 670.5,457.5C 675.032,457.182 679.366,457.515 683.5,458.5 Z"/></g>
<g><path style="opacity:0.549" fill="#b48871" d="M 295.5,393.5 C 286.5,393.5 277.5,393.5 268.5,393.5C 274.523,392.776 280.689,392.11 287,391.5C 289.996,392.035 292.829,392.702 295.5,393.5 Z"/></g>
<g><path style="opacity:0.098" fill="#b1b9ad" d="M 574.5,391.5 C 572.906,394.764 570.573,397.431 567.5,399.5C 569.094,396.236 571.427,393.569 574.5,391.5 Z"/></g>
<g><path style="opacity:1" fill="#8c4d38" d="M 268.5,393.5 C 277.5,393.5 286.5,393.5 295.5,393.5C 300.475,395.882 302.309,399.882 301,405.5C 299.773,407.726 297.939,409.226 295.5,410C 286.5,410.667 277.5,410.667 268.5,410C 263.008,406.858 261.508,402.358 264,396.5C 265.129,394.859 266.629,393.859 268.5,393.5 Z"/></g>
<g><path style="opacity:1" fill="#88321f" d="M 273.5,395.5 C 281.167,395.5 288.833,395.5 296.5,395.5C 296.827,399.671 296.827,403.504 296.5,407C 292.112,408.107 287.612,408.607 283,408.5C 277.503,408.7 272.17,408.034 267,406.5C 266.774,403.905 266.274,401.405 265.5,399C 267.887,397.108 270.553,395.942 273.5,395.5 Z"/></g>
<g><path style="opacity:0.086" fill="#b6c2b4" d="M 565.5,401.5 C 565.106,403.71 563.773,405.043 561.5,405.5C 562.326,403.736 563.659,402.402 565.5,401.5 Z"/></g>
<g><path style="opacity:1" fill="#883f29" d="M 755.5,392.5 C 764.506,392.334 773.506,392.5 782.5,393C 787.419,395.741 789.252,399.908 788,405.5C 786.457,407.378 784.624,408.878 782.5,410C 772.781,410.859 763.115,410.526 753.5,409C 747.681,402.575 748.348,397.075 755.5,392.5 Z"/></g>
<g><path style="opacity:1" fill="#ad6c55" d="M 470.5,416.5 C 469.213,417.768 468.213,417.435 467.5,415.5C 465.333,414.208 463,413.375 460.5,413C 459.939,411.324 458.939,409.991 457.5,409C 448.81,408.883 440.144,409.383 431.5,410.5C 440.447,407.101 449.78,405.267 459.5,405C 463.298,408.812 466.965,412.645 470.5,416.5 Z"/></g>
<g><path style="opacity:1" fill="#81311b" d="M 619.5,412.5 C 625.025,413.929 630.025,416.429 634.5,420C 636.79,421.777 638.457,423.944 639.5,426.5C 639.443,428.884 639.777,431.218 640.5,433.5C 639.453,435.056 638.786,436.723 638.5,438.5C 635.833,439.833 633.167,441.167 630.5,442.5C 630.5,443.5 630.5,444.5 630.5,445.5C 630.167,445.5 629.833,445.5 629.5,445.5C 622.794,446.74 616.294,449.407 610,453.5C 603.963,455.608 597.797,457.275 591.5,458.5C 591.137,459.183 590.804,459.85 590.5,460.5C 586.453,462.26 582.12,463.26 577.5,463.5C 573.894,463.789 570.394,463.456 567,462.5C 565.599,464.192 563.766,464.859 561.5,464.5C 562.598,463.603 562.598,462.77 561.5,462C 562.449,461.383 563.282,461.549 564,462.5C 565.758,461.531 566.258,460.364 565.5,459C 566.672,458.581 567.672,457.915 568.5,457C 566.167,457.333 563.833,457.667 561.5,458C 560.833,457.667 560.167,457.333 559.5,457C 560.614,455.551 561.614,454.217 562.5,453C 558.57,452.758 554.903,451.925 551.5,450.5C 557.718,451.023 563.718,450.356 569.5,448.5C 582.202,447.042 594.535,444.209 606.5,440C 612.099,436.231 613.765,431.064 611.5,424.5C 609.167,424.167 606.833,423.833 604.5,423.5C 599.53,423.541 594.864,424.541 590.5,426.5C 585.752,424.32 582.086,425.32 579.5,429.5C 580.376,430.251 581.376,430.751 582.5,431C 578.809,431.42 575.142,431.92 571.5,432.5C 571.419,429.284 570.919,426.284 570,423.5C 573.584,421.982 576.084,419.482 577.5,416C 579.217,414.441 581.217,413.608 583.5,413.5C 583.281,412.325 583.614,411.325 584.5,410.5C 587.011,409.219 589.678,408.552 592.5,408.5C 597.494,409.277 602.494,409.944 607.5,410.5C 607.238,411.978 607.571,413.311 608.5,414.5C 609.631,413.249 610.964,412.249 612.5,411.5C 614.782,412.223 617.116,412.557 619.5,412.5 Z"/></g>
<g><path style="opacity:1" fill="#3b3c2e" d="M 567.5,399.5 C 567.5,400.833 566.833,401.5 565.5,401.5C 563.659,402.402 562.326,403.736 561.5,405.5C 556.242,411.425 550.575,417.092 544.5,422.5C 542.167,422.833 540.833,424.167 540.5,426.5C 538.167,429.5 535.5,432.167 532.5,434.5C 531.972,433.153 531.805,431.819 532,430.5C 532.414,430.957 532.914,431.291 533.5,431.5C 534.281,430.271 534.781,428.938 535,427.5C 535.414,427.957 535.914,428.291 536.5,428.5C 537.298,426.922 537.798,425.256 538,423.5C 540.149,422.348 541.982,420.848 543.5,419C 543.167,418.667 542.833,418.333 542.5,418C 544.473,417.505 546.473,417.338 548.5,417.5C 550.059,415.455 550.726,412.455 550.5,408.5C 555.807,407.178 560.141,404.345 563.5,400C 564.959,400.355 566.293,400.189 567.5,399.5 Z"/></g>
<g><path style="opacity:1" fill="#291a0d" d="M 584.5,375.5 C 584.737,376.791 584.404,377.791 583.5,378.5C 582.292,379.234 580.959,379.567 579.5,379.5C 579.5,381.167 579.5,382.833 579.5,384.5C 576.477,384.105 575.477,385.105 576.5,387.5C 575.37,388.622 574.703,389.956 574.5,391.5C 571.427,393.569 569.094,396.236 567.5,399.5C 566.293,400.189 564.959,400.355 563.5,400C 560.141,404.345 555.807,407.178 550.5,408.5C 550.726,412.455 550.059,415.455 548.5,417.5C 546.473,417.338 544.473,417.505 542.5,418C 542.833,418.333 543.167,418.667 543.5,419C 541.982,420.848 540.149,422.348 538,423.5C 537.798,425.256 537.298,426.922 536.5,428.5C 535.914,428.291 535.414,427.957 535,427.5C 534.781,428.938 534.281,430.271 533.5,431.5C 532.914,431.291 532.414,430.957 532,430.5C 531.805,431.819 531.972,433.153 532.5,434.5C 530.5,437.167 528.167,439.5 525.5,441.5C 524.5,441.5 523.5,441.5 522.5,441.5C 522.334,434.825 522.5,428.158 523,421.5C 523.278,420.584 523.778,419.918 524.5,419.5C 537.81,407.189 550.477,394.189 562.5,380.5C 565.272,378.961 567.439,379.627 569,382.5C 570.322,379.112 572.155,378.779 574.5,381.5C 577.512,377.989 580.678,374.656 584,371.5C 584.49,372.793 584.657,374.127 584.5,375.5 Z"/></g>
<g><path style="opacity:0.263" fill="#a0ab9c" d="M 544.5,422.5 C 543.5,424.167 542.167,425.5 540.5,426.5C 540.833,424.167 542.167,422.833 544.5,422.5 Z"/></g>
<g><path style="opacity:1" fill="#311d10" d="M 449.5,479.5 C 447.983,479.511 446.816,480.177 446,481.5C 444.334,480.66 444.167,481.16 445.5,483C 441.833,485.732 439.666,484.899 439,480.5C 435.483,482.399 431.65,483.399 427.5,483.5C 427.5,482.167 427.5,480.833 427.5,479.5C 426.022,479.238 424.689,479.571 423.5,480.5C 425.615,482.615 425.949,484.949 424.5,487.5C 418.579,486.099 412.913,483.932 407.5,481C 404.883,480.178 402.216,479.678 399.5,479.5C 396.291,472.408 391.957,471.908 386.5,478C 387.328,478.915 388.328,479.581 389.5,480C 388.426,480.739 387.759,481.739 387.5,483C 388.573,484.416 388.573,485.75 387.5,487C 388.701,487.903 389.535,489.069 390,490.5C 391.867,497.313 394.033,503.98 396.5,510.5C 394.882,515.609 396.382,519.609 401,522.5C 400.906,525.501 402.239,527.501 405,528.5C 407.301,535.1 410.135,541.434 413.5,547.5C 417.701,550.032 421.201,553.365 424,557.5C 424.507,558.996 424.007,560.163 422.5,561C 425.552,561.882 427.886,563.716 429.5,566.5C 431.385,567.609 433.385,568.443 435.5,569C 436.05,571.158 437.05,571.658 438.5,570.5C 439.6,573.787 441.267,576.787 443.5,579.5C 454.474,583.977 464.808,589.477 474.5,596C 477.365,596.183 480.031,596.683 482.5,597.5C 483.091,598.151 483.757,598.818 484.5,599.5C 483.098,600.842 483.431,601.676 485.5,602C 483.75,603.319 481.75,603.819 479.5,603.5C 479.703,605.39 479.037,606.89 477.5,608C 477.833,608.333 478.167,608.667 478.5,609C 477.258,609.311 476.258,608.811 475.5,607.5C 474.352,609.35 473.019,610.017 471.5,609.5C 473.184,610.15 474.517,611.15 475.5,612.5C 441.086,600.593 414.586,578.927 396,547.5C 376.302,511.679 368.636,473.346 373,432.5C 378.726,408.103 393.559,391.936 417.5,384C 423.961,381.382 430.628,380.049 437.5,380C 441.45,384.072 445.283,388.238 449,392.5C 449.982,393.759 450.315,395.092 450,396.5C 432.9,398.977 417.067,404.81 402.5,414C 392.34,422.149 388.173,432.649 390,445.5C 393.026,453.194 398.192,459.028 405.5,463C 419.64,470.209 434.307,475.709 449.5,479.5 Z"/></g>
<g><path style="opacity:1" fill="#ac6d58" d="M 470.5,416.5 C 477.56,422.894 484.227,429.56 490.5,436.5C 484.139,437.191 477.806,436.691 471.5,435C 461.304,432.823 451.47,429.656 442,425.5C 435.633,426.574 433.8,429.908 436.5,435.5C 434.908,436.602 434.075,435.935 434,433.5C 432.68,427.127 435.347,423.794 442,423.5C 446.822,424.72 451.655,425.887 456.5,427C 457.833,428.333 459.167,429.667 460.5,431C 467.139,432.786 473.806,433.286 480.5,432.5C 481.146,428.852 479.479,426.519 475.5,425.5C 473.385,422.726 471.719,419.726 470.5,416.5 Z"/></g>
<g><path style="opacity:1" fill="#87422d" d="M 619.5,412.5 C 617.116,412.557 614.782,412.223 612.5,411.5C 610.964,412.249 609.631,413.249 608.5,414.5C 607.571,413.311 607.238,411.978 607.5,410.5C 602.494,409.944 597.494,409.277 592.5,408.5C 589.678,408.552 587.011,409.219 584.5,410.5C 583.614,411.325 583.281,412.325 583.5,413.5C 581.217,413.608 579.217,414.441 577.5,416C 576.084,419.482 573.584,421.982 570,423.5C 570.919,426.284 571.419,429.284 571.5,432.5C 575.142,431.92 578.809,431.42 582.5,431C 581.376,430.751 580.376,430.251 579.5,429.5C 582.086,425.32 585.752,424.32 590.5,426.5C 594.864,424.541 599.53,423.541 604.5,423.5C 606.833,423.833 609.167,424.167 611.5,424.5C 613.765,431.064 612.099,436.231 606.5,440C 594.535,444.209 582.202,447.042 569.5,448.5C 569.5,448.167 569.5,447.833 569.5,447.5C 581.397,445.258 593.063,442.091 604.5,438C 609.084,436.778 611.25,433.944 611,429.5C 610.5,428.333 609.667,427.5 608.5,427C 602.178,426.658 596.178,427.991 590.5,431C 581.952,433.471 573.285,435.304 564.5,436.5C 562.473,436.662 560.473,436.495 558.5,436C 559.464,434.275 560.131,432.441 560.5,430.5C 569.064,421.85 577.73,413.35 586.5,405C 598.116,405.156 609.116,407.656 619.5,412.5 Z"/></g>
<g><path style="opacity:1" fill="#9e6b58" d="M 560.5,430.5 C 560.131,432.441 559.464,434.275 558.5,436C 560.473,436.495 562.473,436.662 564.5,436.5C 561.313,437.806 557.98,437.806 554.5,436.5C 556.06,434.055 558.06,432.055 560.5,430.5 Z"/></g>
<g><path style="opacity:1" fill="#be8872" d="M 796.5,429.5 C 764.662,429.168 732.996,429.502 701.5,430.5C 699.473,430.338 697.473,430.505 695.5,431C 692.552,432.01 691.886,433.843 693.5,436.5C 696.941,437.461 700.274,438.628 703.5,440C 702.944,440.383 702.611,440.883 702.5,441.5C 697.88,440.906 693.713,439.239 690,436.5C 688.729,432.834 689.896,430.334 693.5,429C 728.002,428.169 762.336,428.336 796.5,429.5 Z"/></g>
<g><path style="opacity:1" fill="#b07862" d="M 408.5,422.5 C 408.245,425.016 407.411,427.35 406,429.5C 405.159,433.12 405.826,436.454 408,439.5C 410.998,441.333 413.498,443.666 415.5,446.5C 409.025,444.042 404.692,439.542 402.5,433C 403.369,428.751 405.369,425.251 408.5,422.5 Z"/></g>
<g><path style="opacity:1" fill="#8d5944" d="M 639.5,426.5 C 643.705,431.801 643.038,436.634 637.5,441C 635.283,442.723 632.95,444.223 630.5,445.5C 630.5,444.5 630.5,443.5 630.5,442.5C 633.167,441.167 635.833,439.833 638.5,438.5C 638.786,436.723 639.453,435.056 640.5,433.5C 639.777,431.218 639.443,428.884 639.5,426.5 Z"/></g>
<g><path style="opacity:1" fill="#9f614b" d="M 247.5,444.5 C 243.545,441.226 242.711,437.226 245,432.5C 246.319,430.513 248.152,429.346 250.5,429C 283.833,428.333 317.167,428.333 350.5,429C 357.434,432.137 358.934,436.97 355,443.5C 353.829,444.893 352.329,445.727 350.5,446C 316.5,446.667 282.5,446.667 248.5,446C 247.944,445.617 247.611,445.117 247.5,444.5 Z"/></g>
<g><path style="opacity:1" fill="#923c25" d="M 302.5,430.5 C 302.369,431.239 302.536,431.906 303,432.5C 303.718,431.549 304.551,431.383 305.5,432C 303.999,433.252 302.332,434.252 300.5,435C 301.167,435.667 301.833,436.333 302.5,437C 298.719,437.367 298.052,438.7 300.5,441C 301.742,441.311 302.742,440.811 303.5,439.5C 304.333,440.5 305.167,441.5 306,442.5C 306.617,441.551 306.451,440.718 305.5,440C 306.416,439.626 307.25,439.126 308,438.5C 310.795,437.253 313.628,437.253 316.5,438.5C 317.192,437.975 317.692,437.308 318,436.5C 319.541,438.477 320.041,440.477 319.5,442.5C 318.522,442.023 317.689,441.357 317,440.5C 314.97,443.508 312.303,444.174 309,442.5C 307.97,442.836 307.47,443.503 307.5,444.5C 287.5,444.5 267.5,444.5 247.5,444.5C 247.611,443.883 247.944,443.383 248.5,443C 244.597,439.721 244.597,436.388 248.5,433C 266.444,430.996 284.444,430.163 302.5,430.5 Z"/></g>
<g><path style="opacity:1" fill="#a74c37" d="M 302.5,430.5 C 318.837,430.333 335.17,430.5 351.5,431C 353.45,432.244 354.45,434.077 354.5,436.5C 354.35,439.594 353.35,442.26 351.5,444.5C 336.833,444.5 322.167,444.5 307.5,444.5C 307.47,443.503 307.97,442.836 309,442.5C 312.303,444.174 314.97,443.508 317,440.5C 317.689,441.357 318.522,442.023 319.5,442.5C 320.041,440.477 319.541,438.477 318,436.5C 317.692,437.308 317.192,437.975 316.5,438.5C 313.628,437.253 310.795,437.253 308,438.5C 307.25,439.126 306.416,439.626 305.5,440C 306.451,440.718 306.617,441.551 306,442.5C 305.167,441.5 304.333,440.5 303.5,439.5C 302.742,440.811 301.742,441.311 300.5,441C 298.052,438.7 298.719,437.367 302.5,437C 301.833,436.333 301.167,435.667 300.5,435C 302.332,434.252 303.999,433.252 305.5,432C 304.551,431.383 303.718,431.549 303,432.5C 302.536,431.906 302.369,431.239 302.5,430.5 Z"/></g>
<g><path style="opacity:0.525" fill="#bd8e75" d="M 761.5,445.5 C 761.833,445.5 762.167,445.5 762.5,445.5C 774.5,445.5 786.5,445.5 798.5,445.5C 783.305,445.839 768.305,446.839 753.5,448.5C 752.522,448.189 751.855,447.522 751.5,446.5C 754.768,445.513 758.102,445.18 761.5,445.5 Z"/></g>
<g><path style="opacity:1" fill="#b45e44" d="M 470.5,416.5 C 471.719,419.726 473.385,422.726 475.5,425.5C 479.479,426.519 481.146,428.852 480.5,432.5C 473.806,433.286 467.139,432.786 460.5,431C 459.167,429.667 457.833,428.333 456.5,427C 451.655,425.887 446.822,424.72 442,423.5C 435.347,423.794 432.68,427.127 434,433.5C 434.075,435.935 434.908,436.602 436.5,435.5C 437.71,435.932 438.71,436.599 439.5,437.5C 440.466,439.863 441.966,441.863 444,443.5C 447.193,442.677 450.027,443.511 452.5,446C 459.907,445.152 465.907,447.486 470.5,453C 473.478,453.696 476.478,454.196 479.5,454.5C 479.5,453.5 479.5,452.5 479.5,451.5C 486.51,451.668 493.51,452.001 500.5,452.5C 500.525,456.284 502.192,457.284 505.5,455.5C 505.981,458.455 507.481,460.789 510,462.5C 510.49,463.793 510.657,465.127 510.5,466.5C 494.093,465.877 477.759,464.377 461.5,462C 453.325,459.754 445.325,457.087 437.5,454C 434.173,453.39 430.839,452.89 427.5,452.5C 423.182,451.008 419.182,449.008 415.5,446.5C 413.498,443.666 410.998,441.333 408,439.5C 405.826,436.454 405.159,433.12 406,429.5C 407.411,427.35 408.245,425.016 408.5,422.5C 414.862,416.151 422.529,412.151 431.5,410.5C 440.144,409.383 448.81,408.883 457.5,409C 458.939,409.991 459.939,411.324 460.5,413C 463,413.375 465.333,414.208 467.5,415.5C 468.213,417.435 469.213,417.768 470.5,416.5 Z"/></g>
<g><path style="opacity:1" fill="#b47c69" d="M 569.5,447.5 C 569.5,447.833 569.5,448.167 569.5,448.5C 563.718,450.356 557.718,451.023 551.5,450.5C 549.167,450.5 546.833,450.5 544.5,450.5C 552.684,449.436 561.017,448.436 569.5,447.5 Z"/></g>
<g><path style="opacity:1" fill="#b36851" d="M 439.5,437.5 C 459.484,444.997 480.15,449.497 501.5,451C 503.041,452.371 504.375,453.871 505.5,455.5C 502.192,457.284 500.525,456.284 500.5,452.5C 493.51,452.001 486.51,451.668 479.5,451.5C 479.5,452.5 479.5,453.5 479.5,454.5C 476.478,454.196 473.478,453.696 470.5,453C 465.907,447.486 459.907,445.152 452.5,446C 450.027,443.511 447.193,442.677 444,443.5C 441.966,441.863 440.466,439.863 439.5,437.5 Z"/></g>
<g><path style="opacity:1" fill="#905943" d="M 629.5,445.5 C 617.577,453.034 604.577,458.034 590.5,460.5C 590.804,459.85 591.137,459.183 591.5,458.5C 597.797,457.275 603.963,455.608 610,453.5C 616.294,449.407 622.794,446.74 629.5,445.5 Z"/></g>
<g><path style="opacity:1" fill="#2d1a0c" d="M 683.5,458.5 C 687.57,458.432 691.237,459.432 694.5,461.5C 692.99,463.317 691.657,465.317 690.5,467.5C 688.885,468.154 687.218,468.654 685.5,469C 686.573,470.594 687.573,472.094 688.5,473.5C 687.73,475.272 686.397,476.272 684.5,476.5C 681.215,474.28 677.549,473.113 673.5,473C 672.643,472.311 671.977,471.478 671.5,470.5C 666.208,469.505 660.875,469.172 655.5,469.5C 655.5,475.5 655.5,481.5 655.5,487.5C 656.833,487.5 658.167,487.5 659.5,487.5C 659.192,485.076 659.526,482.743 660.5,480.5C 661.716,479.998 662.883,479.665 664,479.5C 664.473,482.244 663.64,484.578 661.5,486.5C 662.617,487.949 663.284,489.616 663.5,491.5C 662.441,496.791 661.775,502.124 661.5,507.5C 660.167,507.5 658.833,507.5 657.5,507.5C 657.657,506.127 657.49,504.793 657,503.5C 655.902,506.583 655.068,509.749 654.5,513C 656.182,514.895 656.682,517.062 656,519.5C 655,516.833 654,516.833 653,519.5C 652.774,522.095 652.274,524.595 651.5,527C 652.695,530.738 651.529,533.571 648,535.5C 647.51,536.793 647.343,538.127 647.5,539.5C 646.491,540.935 645.157,541.769 643.5,542C 644.059,542.725 644.392,543.558 644.5,544.5C 642.931,547.679 641.931,551.012 641.5,554.5C 641.5,555.167 641.167,555.5 640.5,555.5C 639.883,555.389 639.383,555.056 639,554.5C 637.47,556.226 636.47,558.226 636,560.5C 635.667,558.5 635.333,556.5 635,554.5C 634.379,558.25 633.546,561.916 632.5,565.5C 631.752,567.332 630.752,568.999 629.5,570.5C 627.685,571.63 625.685,572.296 623.5,572.5C 623.5,573.833 623.5,575.167 623.5,576.5C 605.034,597.226 582.034,610.559 554.5,616.5C 551.934,616.656 549.434,616.322 547,615.5C 545.238,615.944 545.405,616.444 547.5,617C 546.263,617.232 545.263,617.732 544.5,618.5C 529.596,621.16 514.596,621.16 499.5,618.5C 496.781,617.087 493.781,616.42 490.5,616.5C 485.273,615.944 480.273,614.61 475.5,612.5C 474.517,611.15 473.184,610.15 471.5,609.5C 473.019,610.017 474.352,609.35 475.5,607.5C 476.258,608.811 477.258,609.311 478.5,609C 478.167,608.667 477.833,608.333 477.5,608C 479.037,606.89 479.703,605.39 479.5,603.5C 481.75,603.819 483.75,603.319 485.5,602C 483.431,601.676 483.098,600.842 484.5,599.5C 483.757,598.818 483.091,598.151 482.5,597.5C 488.147,598.664 493.814,599.831 499.5,601C 514.392,601.385 529.392,601.052 544.5,600C 549.091,598.187 553.758,596.687 558.5,595.5C 558.5,594.5 558.5,593.5 558.5,592.5C 566.587,588.93 574.587,585.097 582.5,581C 585.951,576.552 590.285,573.219 595.5,571C 598.09,567.899 599.923,564.399 601,560.5C 604.193,558.155 606.36,555.155 607.5,551.5C 609.39,551.703 610.89,551.037 612,549.5C 612.333,547.5 612.667,545.5 613,543.5C 619.945,531.945 624.945,519.612 628,506.5C 628.667,505.167 629.333,505.167 630,506.5C 630.499,500.509 630.666,494.509 630.5,488.5C 630.265,487.903 629.765,487.57 629,487.5C 618.511,491.165 608.011,494.498 597.5,497.5C 589.655,499.696 581.655,501.03 573.5,501.5C 572.417,501.461 571.417,501.127 570.5,500.5C 563.971,502.27 557.304,502.936 550.5,502.5C 550.918,501.778 551.584,501.278 552.5,501C 551.167,500 551.167,499 552.5,498C 554.473,497.505 556.473,497.338 558.5,497.5C 558.5,498.833 558.5,500.167 558.5,501.5C 560.288,501.785 561.955,501.452 563.5,500.5C 562.311,499.571 560.978,499.238 559.5,499.5C 559.312,497.897 559.812,496.563 561,495.5C 566.716,497.139 572.883,498.139 579.5,498.5C 582.715,497.816 585.882,496.816 589,495.5C 590.144,495.911 591.311,496.244 592.5,496.5C 596.13,495.574 599.797,494.907 603.5,494.5C 603.5,493.5 603.5,492.5 603.5,491.5C 609.387,491.475 614.72,489.808 619.5,486.5C 617.016,485.106 617.016,483.606 619.5,482C 619.167,481.5 618.833,481 618.5,480.5C 616.339,479.965 614.339,479.132 612.5,478C 615.421,477.248 617.087,475.415 617.5,472.5C 626.514,468.825 635.181,464.325 643.5,459C 646.399,456.271 649.066,453.438 651.5,450.5C 652.458,450.047 653.292,449.381 654,448.5C 654,449.833 654,451.167 654,452.5C 657.057,451.549 660.223,451.216 663.5,451.5C 663.5,452.5 663.5,453.5 663.5,454.5C 660.813,454.336 658.146,454.503 655.5,455C 659.222,455.238 662.889,455.738 666.5,456.5C 667.297,452.158 668.13,447.824 669,443.5C 668.496,448.195 668.662,452.862 669.5,457.5C 674.12,458.493 678.786,458.827 683.5,458.5 Z"/></g>
<g><path style="opacity:1" fill="#9a5b46" d="M 321.5,454.5 C 331.5,455.167 341.5,455.833 351.5,456.5C 337.5,456.5 323.5,456.5 309.5,456.5C 302.31,456.656 295.144,456.322 288,455.5C 281.178,456.145 274.345,456.645 267.5,457C 265.658,458.346 264.658,460.179 264.5,462.5C 263.069,463.78 262.402,465.447 262.5,467.5C 259.547,459.216 262.714,454.549 272,453.5C 288.068,453.921 304.568,454.255 321.5,454.5 Z"/></g>
<g><path style="opacity:1" fill="#a14631" d="M 544.5,450.5 C 546.833,450.5 549.167,450.5 551.5,450.5C 554.903,451.925 558.57,452.758 562.5,453C 561.614,454.217 560.614,455.551 559.5,457C 560.167,457.333 560.833,457.667 561.5,458C 563.833,457.667 566.167,457.333 568.5,457C 567.672,457.915 566.672,458.581 565.5,459C 566.258,460.364 565.758,461.531 564,462.5C 563.282,461.549 562.449,461.383 561.5,462C 562.598,462.77 562.598,463.603 561.5,464.5C 554.981,465.76 548.647,465.76 542.5,464.5C 540.313,465.758 537.98,466.758 535.5,467.5C 534,467.547 533,466.881 532.5,465.5C 534.734,463.619 536.067,461.285 536.5,458.5C 538.145,454.855 540.812,452.188 544.5,450.5 Z"/></g>
<g><path style="opacity:1" fill="#ae543d" d="M 309.5,456.5 C 323.5,456.5 337.5,456.5 351.5,456.5C 351.75,457.922 352.583,458.922 354,459.5C 354.991,461.447 355.325,463.447 355,465.5C 352.256,468.623 348.756,469.956 344.5,469.5C 340.833,469.5 337.167,469.5 333.5,469.5C 334.096,467.035 333.43,464.702 331.5,462.5C 330.497,464.542 329.163,464.875 327.5,463.5C 326.749,464.376 326.249,465.376 326,466.5C 325.5,464.667 324.333,463.5 322.5,463C 323.126,462.25 323.626,461.416 324,460.5C 326.946,461.757 328.279,460.757 328,457.5C 327.311,458.357 326.478,459.023 325.5,459.5C 323.078,459.255 320.745,459.255 318.5,459.5C 318.167,458.833 317.833,458.167 317.5,457.5C 315.562,460.079 313.729,460.079 312,457.5C 310.796,458.471 310.296,459.471 310.5,460.5C 309.5,460 308.5,459.5 307.5,459C 308.381,458.292 309.047,457.458 309.5,456.5 Z"/></g>
<g><path style="opacity:1" fill="#99432c" d="M 309.5,456.5 C 309.047,457.458 308.381,458.292 307.5,459C 308.5,459.5 309.5,460 310.5,460.5C 310.296,459.471 310.796,458.471 312,457.5C 313.729,460.079 315.562,460.079 317.5,457.5C 317.833,458.167 318.167,458.833 318.5,459.5C 320.745,459.255 323.078,459.255 325.5,459.5C 326.478,459.023 327.311,458.357 328,457.5C 328.279,460.757 326.946,461.757 324,460.5C 323.626,461.416 323.126,462.25 322.5,463C 324.333,463.5 325.5,464.667 326,466.5C 326.249,465.376 326.749,464.376 327.5,463.5C 329.163,464.875 330.497,464.542 331.5,462.5C 333.43,464.702 334.096,467.035 333.5,469.5C 313.417,469.209 293.083,468.876 272.5,468.5C 270.577,467.692 268.577,467.192 266.5,467C 264.963,465.89 264.297,464.39 264.5,462.5C 264.658,460.179 265.658,458.346 267.5,457C 274.345,456.645 281.178,456.145 288,455.5C 295.144,456.322 302.31,456.656 309.5,456.5 Z"/></g>
<g><path style="opacity:1" fill="#82321d" d="M 701.5,430.5 C 732.996,429.502 764.662,429.168 796.5,429.5C 803.7,432.619 805.2,437.619 801,444.5C 800.329,445.252 799.496,445.586 798.5,445.5C 786.5,445.5 774.5,445.5 762.5,445.5C 767.122,445.096 771.622,444.096 776,442.5C 781.338,442.948 786.338,442.948 791,442.5C 791.667,441.5 791.667,440.5 791,439.5C 790.346,440.696 789.846,440.696 789.5,439.5C 790.289,437.512 791.455,437.179 793,438.5C 794.311,436.018 794.478,433.685 793.5,431.5C 778.545,430.35 763.545,430.183 748.5,431C 749.167,432.333 750.167,433.333 751.5,434C 749.594,435.856 748.76,438.023 749,440.5C 750.249,438.008 751.416,438.175 752.5,441C 751.167,442.84 751.334,443.34 753,442.5C 755.714,443.996 758.547,444.996 761.5,445.5C 758.102,445.18 754.768,445.513 751.5,446.5C 751.855,447.522 752.522,448.189 753.5,448.5C 756.258,451.678 758.258,455.345 759.5,459.5C 761.042,466.95 762.876,474.284 765,481.5C 765.671,482.252 766.504,482.586 767.5,482.5C 768.786,497.831 768.786,513.164 767.5,528.5C 765.905,530.111 764.739,532.111 764,534.5C 763.503,537.146 763.336,539.813 763.5,542.5C 763.598,544.553 762.931,546.22 761.5,547.5C 759.178,549.586 757.178,552.086 755.5,555C 754.451,555.492 753.451,555.326 752.5,554.5C 751.614,555.325 751.281,556.325 751.5,557.5C 752.833,557.5 754.167,557.5 755.5,557.5C 755.157,559.483 755.824,560.817 757.5,561.5C 758.303,562.423 758.47,563.423 758,564.5C 756.184,562.559 754.184,561.892 752,562.5C 750.77,563.275 750.437,564.275 751,565.5C 752.049,564.483 753.216,564.316 754.5,565C 753.167,565.667 753.167,566.333 754.5,567C 753.083,569.826 751.583,569.993 750,567.5C 748.372,568.819 748.539,570.152 750.5,571.5C 752.727,570.737 754.06,571.737 754.5,574.5C 745.167,574.5 735.833,574.5 726.5,574.5C 730.5,568.5 734.5,562.5 738.5,556.5C 761.732,516.104 757.898,478.77 727,444.5C 719.367,438.103 710.867,433.437 701.5,430.5 Z"/></g>
<g><path style="opacity:1" fill="#964229" d="M 762.5,445.5 C 762.167,445.5 761.833,445.5 761.5,445.5C 758.547,444.996 755.714,443.996 753,442.5C 751.334,443.34 751.167,442.84 752.5,441C 751.416,438.175 750.249,438.008 749,440.5C 748.76,438.023 749.594,435.856 751.5,434C 750.167,433.333 749.167,432.333 748.5,431C 763.545,430.183 778.545,430.35 793.5,431.5C 794.478,433.685 794.311,436.018 793,438.5C 791.455,437.179 790.289,437.512 789.5,439.5C 789.846,440.696 790.346,440.696 791,439.5C 791.667,440.5 791.667,441.5 791,442.5C 786.338,442.948 781.338,442.948 776,442.5C 771.622,444.096 767.122,445.096 762.5,445.5 Z"/></g>
<g><path style="opacity:1" fill="#aa6b56" d="M 427.5,452.5 C 430.839,452.89 434.173,453.39 437.5,454C 445.325,457.087 453.325,459.754 461.5,462C 477.759,464.377 494.093,465.877 510.5,466.5C 510.657,465.127 510.49,463.793 510,462.5C 507.481,460.789 505.981,458.455 505.5,455.5C 509.521,458.522 512.855,462.189 515.5,466.5C 514.009,468.012 512.176,469.012 510,469.5C 493.057,468.621 476.223,466.454 459.5,463C 448.365,460.566 437.699,457.066 427.5,452.5 Z"/></g>
<g><path style="opacity:1" fill="#311e11" d="M 694.5,461.5 C 710.967,468.383 720.801,480.717 724,498.5C 724.763,505.882 724.597,513.216 723.5,520.5C 721.246,521.693 720.58,523.36 721.5,525.5C 720.092,526.243 718.759,527.077 717.5,528C 718.861,529.584 719.528,531.418 719.5,533.5C 719.267,536.542 718.267,539.208 716.5,541.5C 715.094,541.973 714.427,542.973 714.5,544.5C 712.738,545.262 711.738,546.596 711.5,548.5C 710.92,550.749 709.587,552.415 707.5,553.5C 706.883,553.389 706.383,553.056 706,552.5C 704.823,554.176 703.323,555.509 701.5,556.5C 702.55,558.102 701.883,558.935 699.5,559C 699.833,559.333 700.167,559.667 700.5,560C 699.354,560.645 698.354,561.478 697.5,562.5C 695.216,561.584 694.049,562.584 694,565.5C 693.586,565.043 693.086,564.709 692.5,564.5C 691.066,565.588 690.066,566.922 689.5,568.5C 680.643,574.176 670.81,576.842 660,576.5C 651.613,577.998 646.447,574.665 644.5,566.5C 645.542,562.57 647.876,559.737 651.5,558C 685.607,556.229 703.107,538.395 704,504.5C 700.98,487.311 690.813,477.977 673.5,476.5C 672.167,476.5 670.833,476.5 669.5,476.5C 669.5,478.167 669.5,479.833 669.5,481.5C 669.65,486.3 668.984,490.967 667.5,495.5C 664.858,500.771 663.191,506.437 662.5,512.5C 662.737,513.791 662.404,514.791 661.5,515.5C 658.322,521.196 655.656,527.196 653.5,533.5C 653.771,535.38 653.104,536.713 651.5,537.5C 649.801,537.527 648.467,538.194 647.5,539.5C 647.343,538.127 647.51,536.793 648,535.5C 651.529,533.571 652.695,530.738 651.5,527C 652.274,524.595 652.774,522.095 653,519.5C 654,516.833 655,516.833 656,519.5C 656.682,517.062 656.182,514.895 654.5,513C 655.068,509.749 655.902,506.583 657,503.5C 657.49,504.793 657.657,506.127 657.5,507.5C 658.833,507.5 660.167,507.5 661.5,507.5C 661.775,502.124 662.441,496.791 663.5,491.5C 663.284,489.616 662.617,487.949 661.5,486.5C 663.64,484.578 664.473,482.244 664,479.5C 662.883,479.665 661.716,479.998 660.5,480.5C 659.526,482.743 659.192,485.076 659.5,487.5C 658.167,487.5 656.833,487.5 655.5,487.5C 655.5,481.5 655.5,475.5 655.5,469.5C 660.875,469.172 666.208,469.505 671.5,470.5C 671.977,471.478 672.643,472.311 673.5,473C 677.549,473.113 681.215,474.28 684.5,476.5C 686.397,476.272 687.73,475.272 688.5,473.5C 687.573,472.094 686.573,470.594 685.5,469C 687.218,468.654 688.885,468.154 690.5,467.5C 691.657,465.317 692.99,463.317 694.5,461.5 Z"/></g>
<g><path style="opacity:1" fill="#c4917e" d="M 268.5,470.5 C 294.005,470.831 319.339,470.498 344.5,469.5C 348.756,469.956 352.256,468.623 355,465.5C 355.325,463.447 354.991,461.447 354,459.5C 352.583,458.922 351.75,457.922 351.5,456.5C 341.5,455.833 331.5,455.167 321.5,454.5C 330.249,454.797 338.915,454.464 347.5,453.5C 355.992,454.862 359.159,459.529 357,467.5C 355.786,469.049 354.286,470.215 352.5,471C 324.33,471.83 296.33,471.664 268.5,470.5 Z"/></g>
<g><path style="opacity:0.863" fill="#9d5b47" d="M 536.5,458.5 C 536.067,461.285 534.734,463.619 532.5,465.5C 533,466.881 534,467.547 535.5,467.5C 537.98,466.758 540.313,465.758 542.5,464.5C 548.647,465.76 554.981,465.76 561.5,464.5C 563.766,464.859 565.599,464.192 567,462.5C 570.394,463.456 573.894,463.789 577.5,463.5C 563.613,466.509 549.446,468.509 535,469.5C 532.578,469.25 530.411,468.416 528.5,467C 530.667,463.667 533.334,460.834 536.5,458.5 Z"/></g>
<g><path style="opacity:0.933" fill="#80402d" d="M 264.5,462.5 C 264.297,464.39 264.963,465.89 266.5,467C 268.577,467.192 270.577,467.692 272.5,468.5C 293.083,468.876 313.417,469.209 333.5,469.5C 337.167,469.5 340.833,469.5 344.5,469.5C 319.339,470.498 294.005,470.831 268.5,470.5C 265.687,470.975 263.687,469.975 262.5,467.5C 262.402,465.447 263.069,463.78 264.5,462.5 Z"/></g>
<g><path style="opacity:1" fill="#834a36" d="M 759.5,459.5 C 763.734,466.53 766.4,474.197 767.5,482.5C 766.504,482.586 765.671,482.252 765,481.5C 762.876,474.284 761.042,466.95 759.5,459.5 Z"/></g>
<g><path style="opacity:1" fill="#391706" d="M 424.5,487.5 C 428.055,490.845 432.389,492.345 437.5,492C 440.704,494.326 444.037,496.159 447.5,497.5C 442.167,496.5 436.833,495.5 431.5,494.5C 431.158,493.662 430.492,493.328 429.5,493.5C 416.489,489.08 403.989,483.413 392,476.5C 391.834,488.825 394.334,500.491 399.5,511.5C 404.72,527.275 412.553,541.608 423,554.5C 428.37,559.702 433.536,565.035 438.5,570.5C 437.05,571.658 436.05,571.158 435.5,569C 433.385,568.443 431.385,567.609 429.5,566.5C 427.886,563.716 425.552,561.882 422.5,561C 424.007,560.163 424.507,558.996 424,557.5C 421.201,553.365 417.701,550.032 413.5,547.5C 410.135,541.434 407.301,535.1 405,528.5C 402.239,527.501 400.906,525.501 401,522.5C 396.382,519.609 394.882,515.609 396.5,510.5C 394.033,503.98 391.867,497.313 390,490.5C 389.535,489.069 388.701,487.903 387.5,487C 388.573,485.75 388.573,484.416 387.5,483C 387.759,481.739 388.426,480.739 389.5,480C 388.328,479.581 387.328,478.915 386.5,478C 391.957,471.908 396.291,472.408 399.5,479.5C 402.216,479.678 404.883,480.178 407.5,481C 412.913,483.932 418.579,486.099 424.5,487.5 Z"/></g>
<g><path style="opacity:0.267" fill="#c2b1a1" d="M 673.5,476.5 C 672.791,477.404 671.791,477.737 670.5,477.5C 670.768,479.099 670.434,480.432 669.5,481.5C 669.5,479.833 669.5,478.167 669.5,476.5C 670.833,476.5 672.167,476.5 673.5,476.5 Z"/></g>
<g><path style="opacity:0.999" fill="#2e1b0e" d="M 617.5,472.5 C 617.087,475.415 615.421,477.248 612.5,478C 614.339,479.132 616.339,479.965 618.5,480.5C 618.833,481 619.167,481.5 619.5,482C 617.016,483.606 617.016,485.106 619.5,486.5C 614.72,489.808 609.387,491.475 603.5,491.5C 603.5,492.5 603.5,493.5 603.5,494.5C 599.797,494.907 596.13,495.574 592.5,496.5C 591.311,496.244 590.144,495.911 589,495.5C 585.882,496.816 582.715,497.816 579.5,498.5C 572.883,498.139 566.716,497.139 561,495.5C 559.812,496.563 559.312,497.897 559.5,499.5C 560.978,499.238 562.311,499.571 563.5,500.5C 561.955,501.452 560.288,501.785 558.5,501.5C 558.5,500.167 558.5,498.833 558.5,497.5C 556.473,497.338 554.473,497.505 552.5,498C 551.167,499 551.167,500 552.5,501C 551.584,501.278 550.918,501.778 550.5,502.5C 532.574,503.652 514.574,503.819 496.5,503C 480.226,501.091 463.892,499.258 447.5,497.5C 444.037,496.159 440.704,494.326 437.5,492C 432.389,492.345 428.055,490.845 424.5,487.5C 425.949,484.949 425.615,482.615 423.5,480.5C 424.689,479.571 426.022,479.238 427.5,479.5C 427.5,480.833 427.5,482.167 427.5,483.5C 431.65,483.399 435.483,482.399 439,480.5C 439.666,484.899 441.833,485.732 445.5,483C 444.167,481.16 444.334,480.66 446,481.5C 446.816,480.177 447.983,479.511 449.5,479.5C 480.836,485.07 512.502,487.403 544.5,486.5C 546.792,486.244 548.959,486.577 551,487.5C 555.685,484.837 560.352,484.837 565,487.5C 566.257,487.15 566.591,486.483 566,485.5C 565.086,486.654 564.253,486.487 563.5,485C 565.058,484.79 566.391,484.29 567.5,483.5C 584.444,481.097 601.111,477.431 617.5,472.5 Z"/></g>
<g><path style="opacity:1" fill="#625141" d="M 567.5,483.5 C 566.391,484.29 565.058,484.79 563.5,485C 564.253,486.487 565.086,486.654 566,485.5C 566.591,486.483 566.257,487.15 565,487.5C 560.352,484.837 555.685,484.837 551,487.5C 548.959,486.577 546.792,486.244 544.5,486.5C 551.971,485.049 559.638,484.049 567.5,483.5 Z"/></g>
<g><path style="opacity:1" fill="#7d3a26" d="M 242.5,488.5 C 264.503,488.333 286.503,488.5 308.5,489C 310.058,489.21 311.391,489.71 312.5,490.5C 288.164,490.333 263.831,490.5 239.5,491C 238.267,492.698 237.6,494.698 237.5,497C 237.6,499.302 238.267,501.302 239.5,503C 273.498,503.5 307.498,503.667 341.5,503.5C 307.671,504.498 273.671,504.832 239.5,504.5C 232.826,500.966 231.826,496.133 236.5,490C 238.345,488.872 240.345,488.372 242.5,488.5 Z"/></g>
<g><path style="opacity:1" fill="#b77a66" d="M 242.5,488.5 C 274.997,487.336 307.664,487.169 340.5,488C 347.659,490.467 349.659,494.967 346.5,501.5C 347.101,497.71 346.101,494.544 343.5,492C 333.357,491.139 323.024,490.639 312.5,490.5C 311.391,489.71 310.058,489.21 308.5,489C 286.503,488.5 264.503,488.333 242.5,488.5 Z"/></g>
<g><path style="opacity:1" fill="#8b3721" d="M 312.5,490.5 C 323.024,490.639 333.357,491.139 343.5,492C 346.101,494.544 347.101,497.71 346.5,501.5C 345.778,501.082 345.278,500.416 345,499.5C 344.51,500.793 344.343,502.127 344.5,503.5C 343.5,503.5 342.5,503.5 341.5,503.5C 307.498,503.667 273.498,503.5 239.5,503C 238.267,501.302 237.6,499.302 237.5,497C 237.6,494.698 238.267,492.698 239.5,491C 263.831,490.5 288.164,490.333 312.5,490.5 Z"/></g>
<g><path style="opacity:0.639" fill="#999183" d="M 667.5,495.5 C 666.589,501.493 664.923,507.16 662.5,512.5C 663.191,506.437 664.858,500.771 667.5,495.5 Z"/></g>
<g><path style="opacity:1" fill="#92573f" d="M 787.5,489.5 C 795.343,487.207 803.343,487.04 811.5,489C 818.167,494.333 818.167,499.667 811.5,505C 803.5,505.667 795.5,505.667 787.5,505C 784.334,503.334 783,500.668 783.5,497C 782.987,493.383 784.321,490.883 787.5,489.5 Z"/></g>
<g><path style="opacity:1" fill="#8a3b20" d="M 787.5,489.5 C 794.841,489.334 802.174,489.5 809.5,490C 814.037,494.162 814.37,498.495 810.5,503C 802.421,503.901 794.421,503.568 786.5,502C 785.056,500.874 784.39,499.374 784.5,497.5C 785.519,494.803 786.519,492.136 787.5,489.5 Z"/></g>
<g><path style="opacity:0.676" fill="#a6715e" d="M 346.5,501.5 C 346.426,503.411 345.426,504.578 343.5,505C 308.664,505.831 273.998,505.664 239.5,504.5C 273.671,504.832 307.671,504.498 341.5,503.5C 342.5,503.5 343.5,503.5 344.5,503.5C 344.343,502.127 344.51,500.793 345,499.5C 345.278,500.416 345.778,501.082 346.5,501.5 Z"/></g>
<g><path style="opacity:1" fill="#a8614b" d="M 431.5,494.5 C 436.833,495.5 442.167,496.5 447.5,497.5C 477.642,504.678 508.308,507.178 539.5,505C 546.167,504.667 552.833,504.333 559.5,504C 564.412,503.778 569.079,502.945 573.5,501.5C 581.655,501.03 589.655,499.696 597.5,497.5C 597.5,498.167 597.5,498.833 597.5,499.5C 584.669,501.119 572.002,503.619 559.5,507C 537.833,507.667 516.167,507.667 494.5,507C 476.584,505.344 458.918,502.678 441.5,499C 437.997,497.474 434.664,495.974 431.5,494.5 Z"/></g>
<g><path style="opacity:1" fill="#3d1705" d="M 447.5,497.5 C 463.892,499.258 480.226,501.091 496.5,503C 514.574,503.819 532.574,503.652 550.5,502.5C 557.304,502.936 563.971,502.27 570.5,500.5C 571.417,501.127 572.417,501.461 573.5,501.5C 569.079,502.945 564.412,503.778 559.5,504C 552.833,504.333 546.167,504.667 539.5,505C 508.308,507.178 477.642,504.678 447.5,497.5 Z"/></g>
<g><path style="opacity:1" fill="#aa6950" d="M 738.5,479.5 C 739.497,479.47 740.164,479.97 740.5,481C 747.631,501.509 747.131,521.676 739,541.5C 738.329,542.252 737.496,542.586 736.5,542.5C 744.968,521.749 745.634,500.749 738.5,479.5 Z"/></g>
<g><path style="opacity:1" fill="#ad6147" d="M 429.5,493.5 C 427.143,493.337 424.81,493.503 422.5,494C 423.891,495.02 425.391,495.853 427,496.5C 427.83,501.323 429.164,505.989 431,510.5C 431.424,506.81 432.258,506.643 433.5,510C 432.029,513.321 431.363,516.821 431.5,520.5C 428.555,513.079 426.055,505.412 424,497.5C 418.616,494.169 415.116,495.669 413.5,502C 417.479,521.125 425.813,537.958 438.5,552.5C 440.191,555.847 441.858,559.181 443.5,562.5C 447.2,562.536 449.867,564.203 451.5,567.5C 453.297,571.672 452.63,572.672 449.5,570.5C 448.5,570.833 447.833,571.5 447.5,572.5C 450.75,573.338 452.916,575.338 454,578.5C 458.886,582.776 464.552,585.442 471,586.5C 472.838,588.006 474.671,589.506 476.5,591C 478.811,590.845 481.144,590.845 483.5,591C 486.616,593.016 489.95,594.516 493.5,595.5C 491.5,595.5 489.5,595.5 487.5,595.5C 469.388,590.611 453.055,582.278 438.5,570.5C 433.536,565.035 428.37,559.702 423,554.5C 412.553,541.608 404.72,527.275 399.5,511.5C 394.334,500.491 391.834,488.825 392,476.5C 403.989,483.413 416.489,489.08 429.5,493.5 Z"/></g>
<g><path style="opacity:1" fill="#b35e42" d="M 399.5,511.5 C 396.961,501.268 394.961,490.934 393.5,480.5C 394.833,480.5 396.167,480.5 397.5,480.5C 397.215,482.288 397.548,483.955 398.5,485.5C 400.098,484.515 401.765,484.349 403.5,485C 407.695,486.84 411.862,488.673 416,490.5C 416.667,491.5 416.667,492.5 416,493.5C 411.616,498.097 410.449,503.43 412.5,509.5C 411.113,509.807 409.446,509.807 407.5,509.5C 407.578,512.252 407.745,514.918 408,517.5C 404.573,516.275 401.74,514.275 399.5,511.5 Z"/></g>
<g><path style="opacity:1" fill="#7e301a" d="M 630.5,488.5 C 629.688,492.448 628.688,496.448 627.5,500.5C 626.21,501.058 625.377,502.058 625,503.5C 624.158,508.533 623.158,513.533 622,518.5C 619.093,523.984 616.426,529.651 614,535.5C 610.333,541.167 606.667,546.833 603,552.5C 599.015,554.772 596.182,558.105 594.5,562.5C 593.167,563.167 591.833,563.833 590.5,564.5C 588.102,569.735 584.102,572.902 578.5,574C 577.574,576.084 576.24,578.417 574.5,581C 570.5,583 566.5,585 562.5,587C 561.207,587.49 559.873,587.657 558.5,587.5C 558.5,588.5 558.5,589.5 558.5,590.5C 548.165,593.65 537.498,596.15 526.5,598C 515.81,599.26 505.476,598.426 495.5,595.5C 520.234,593.797 541.567,584.463 559.5,567.5C 564.872,562.13 569.872,556.463 574.5,550.5C 575.456,548.925 576.123,547.258 576.5,545.5C 578.074,545.063 579.241,544.063 580,542.5C 587.484,528.862 593.317,514.528 597.5,499.5C 597.5,498.833 597.5,498.167 597.5,497.5C 608.011,494.498 618.511,491.165 629,487.5C 629.765,487.57 630.265,487.903 630.5,488.5 Z"/></g>
<g><path style="opacity:0.831" fill="#905f46" d="M 269.5,513.5 C 288.329,512.338 307.329,512.171 326.5,513C 332.186,516.127 333.852,520.627 331.5,526.5C 331.17,522.158 329.504,518.492 326.5,515.5C 324.257,514.526 321.924,514.192 319.5,514.5C 303.008,513.503 286.342,513.17 269.5,513.5 Z"/></g>
<g><path style="opacity:1" fill="#af5b41" d="M 701.5,430.5 C 710.867,433.437 719.367,438.103 727,444.5C 757.898,478.77 761.732,516.104 738.5,556.5C 737.533,555.194 736.199,554.527 734.5,554.5C 735.167,550.5 735.833,546.5 736.5,542.5C 737.496,542.586 738.329,542.252 739,541.5C 747.131,521.676 747.631,501.509 740.5,481C 740.164,479.97 739.497,479.47 738.5,479.5C 730.972,462.637 718.972,449.971 702.5,441.5C 702.611,440.883 702.944,440.383 703.5,440C 700.274,438.628 696.941,437.461 693.5,436.5C 691.886,433.843 692.552,432.01 695.5,431C 697.473,430.505 699.473,430.338 701.5,430.5 Z"/></g>
<g><path style="opacity:0.914" fill="#8b5641" d="M 767.5,482.5 C 769.835,490.363 770.835,498.53 770.5,507C 770.927,514.507 769.927,521.674 767.5,528.5C 768.786,513.164 768.786,497.831 767.5,482.5 Z"/></g>
<g><path style="opacity:1" fill="#b76044" d="M 495.5,531.5 C 495.5,531.833 495.5,532.167 495.5,532.5C 494.25,532.423 493.417,531.756 493,530.5C 492.117,533.1 490.617,535.267 488.5,537C 488.745,538.911 488.745,540.911 488.5,543C 490.397,544.11 492.23,544.276 494,543.5C 493.843,547.827 495.51,551.16 499,553.5C 500.113,554.76 500.28,555.927 499.5,557C 502.957,558.12 505.29,559.787 506.5,562C 504.195,563.664 504.528,565.164 507.5,566.5C 509.096,564.286 511.262,563.286 514,563.5C 520.146,564.51 526.313,564.676 532.5,564C 535.533,561.726 538.7,559.559 542,557.5C 543.128,559.345 543.628,561.345 543.5,563.5C 547.551,562.547 551.551,562.213 555.5,562.5C 558.07,560.386 560.403,558.053 562.5,555.5C 563.731,554.349 563.731,553.183 562.5,552C 563.448,551.517 564.448,551.351 565.5,551.5C 566.388,548.619 567.388,546.119 568.5,544C 570.198,544.497 571.865,544.33 573.5,543.5C 574.739,543.942 575.739,544.609 576.5,545.5C 576.123,547.258 575.456,548.925 574.5,550.5C 569.872,556.463 564.872,562.13 559.5,567.5C 541.567,584.463 520.234,593.797 495.5,595.5C 494.833,595.5 494.167,595.5 493.5,595.5C 489.95,594.516 486.616,593.016 483.5,591C 481.144,590.845 478.811,590.845 476.5,591C 474.671,589.506 472.838,588.006 471,586.5C 464.552,585.442 458.886,582.776 454,578.5C 452.916,575.338 450.75,573.338 447.5,572.5C 447.833,571.5 448.5,570.833 449.5,570.5C 452.63,572.672 453.297,571.672 451.5,567.5C 455.102,568.321 458.102,570.155 460.5,573C 466.655,573.853 470.322,571.187 471.5,565C 470.354,562.133 470.354,559.3 471.5,556.5C 469.86,554.417 467.86,554.084 465.5,555.5C 465.649,554.448 465.483,553.448 465,552.5C 463.507,554.56 461.674,554.893 459.5,553.5C 455.553,551.553 452.553,548.553 450.5,544.5C 448.929,543.691 447.262,543.357 445.5,543.5C 446.303,542.577 446.47,541.577 446,540.5C 444.171,538.844 442.837,536.844 442,534.5C 441.333,535.833 440.667,535.833 440,534.5C 439.381,531.968 438.381,529.635 437,527.5C 436.731,524.648 435.897,521.982 434.5,519.5C 435.309,517.929 435.643,516.262 435.5,514.5C 437.144,514.286 438.644,514.62 440,515.5C 441.934,513.581 441.767,512.081 439.5,511C 442.914,509.063 446.581,507.896 450.5,507.5C 456.209,508.831 461.876,510.165 467.5,511.5C 470.086,510.781 472.753,510.781 475.5,511.5C 477.486,511.213 479.32,510.547 481,509.5C 481.945,509.905 482.612,510.572 483,511.5C 483.7,509.968 484.866,508.968 486.5,508.5C 486.533,509.989 487.033,511.322 488,512.5C 489.667,512.167 491.333,511.833 493,511.5C 494.706,512.308 495.539,513.641 495.5,515.5C 496.833,515.5 498.167,515.5 499.5,515.5C 499.286,517.144 499.62,518.644 500.5,520C 497.399,523.214 495.733,527.048 495.5,531.5 Z"/></g>
<g><path style="opacity:0.176" fill="#a0ac9c" d="M 661.5,515.5 C 659.882,522.06 657.216,528.06 653.5,533.5C 655.656,527.196 658.322,521.196 661.5,515.5 Z"/></g>
<g><path style="opacity:1" fill="#8f4129" d="M 269.5,513.5 C 286.342,513.17 303.008,513.503 319.5,514.5C 315.818,514.335 312.152,514.501 308.5,515C 310.689,515.677 311.022,516.844 309.5,518.5C 308.167,519.167 306.833,519.833 305.5,520.5C 307.113,520.032 308.613,520.699 310,522.5C 310.333,521.167 310.667,519.833 311,518.5C 311.29,520.044 311.956,521.377 313,522.5C 313.333,521.833 313.667,521.167 314,520.5C 314.667,522.167 314.667,523.833 314,525.5C 313.333,524.833 312.667,524.167 312,523.5C 313.301,526.714 312.134,528.548 308.5,529C 309.289,532.097 310.456,532.264 312,529.5C 314.096,530.715 313.929,531.549 311.5,532C 316.986,533.261 317.652,535.594 313.5,539C 314.938,539.219 316.271,539.719 317.5,540.5C 316.5,542.833 317.167,543.5 319.5,542.5C 320.696,542.846 320.696,543.346 319.5,544C 336.83,544.5 354.163,544.667 371.5,544.5C 372.167,544.5 372.5,544.833 372.5,545.5C 346.003,546.664 319.336,546.83 292.5,546C 290.509,545.626 288.842,544.793 287.5,543.5C 287.387,537.693 285.72,532.526 282.5,528C 277.5,527.667 272.5,527.333 267.5,527C 266.484,525.323 265.484,523.657 264.5,522C 265.58,520.545 265.58,519.045 264.5,517.5C 265.129,515.003 266.796,513.67 269.5,513.5 Z"/></g>
<g><path style="opacity:1" fill="#b45f44" d="M 429.5,493.5 C 430.492,493.328 431.158,493.662 431.5,494.5C 434.664,495.974 437.997,497.474 441.5,499C 458.918,502.678 476.584,505.344 494.5,507C 516.167,507.667 537.833,507.667 559.5,507C 572.002,503.619 584.669,501.119 597.5,499.5C 593.317,514.528 587.484,528.862 580,542.5C 579.241,544.063 578.074,545.063 576.5,545.5C 575.739,544.609 574.739,543.942 573.5,543.5C 571.865,544.33 570.198,544.497 568.5,544C 567.388,546.119 566.388,548.619 565.5,551.5C 564.448,551.351 563.448,551.517 562.5,552C 563.731,553.183 563.731,554.349 562.5,555.5C 560.403,558.053 558.07,560.386 555.5,562.5C 551.551,562.213 547.551,562.547 543.5,563.5C 543.628,561.345 543.128,559.345 542,557.5C 538.7,559.559 535.533,561.726 532.5,564C 526.313,564.676 520.146,564.51 514,563.5C 511.262,563.286 509.096,564.286 507.5,566.5C 504.528,565.164 504.195,563.664 506.5,562C 505.29,559.787 502.957,558.12 499.5,557C 500.28,555.927 500.113,554.76 499,553.5C 495.51,551.16 493.843,547.827 494,543.5C 492.23,544.276 490.397,544.11 488.5,543C 488.745,540.911 488.745,538.911 488.5,537C 490.617,535.267 492.117,533.1 493,530.5C 493.417,531.756 494.25,532.423 495.5,532.5C 493.525,547.539 499.858,557.205 514.5,561.5C 523.276,563.555 531.61,562.389 539.5,558C 541.464,556.549 542.797,554.716 543.5,552.5C 544.117,552.389 544.617,552.056 545,551.5C 548.124,536.075 542.79,524.408 529,516.5C 527.334,517.348 525.834,518.348 524.5,519.5C 523.596,518.791 523.263,517.791 523.5,516.5C 524.78,514.894 524.28,513.894 522,513.5C 517.212,514.484 512.712,516.15 508.5,518.5C 503.188,521.812 498.855,526.145 495.5,531.5C 495.733,527.048 497.399,523.214 500.5,520C 499.62,518.644 499.286,517.144 499.5,515.5C 498.167,515.5 496.833,515.5 495.5,515.5C 495.539,513.641 494.706,512.308 493,511.5C 491.333,511.833 489.667,512.167 488,512.5C 487.033,511.322 486.533,509.989 486.5,508.5C 484.866,508.968 483.7,509.968 483,511.5C 482.612,510.572 481.945,509.905 481,509.5C 479.32,510.547 477.486,511.213 475.5,511.5C 472.753,510.781 470.086,510.781 467.5,511.5C 461.876,510.165 456.209,508.831 450.5,507.5C 446.581,507.896 442.914,509.063 439.5,511C 441.767,512.081 441.934,513.581 440,515.5C 438.644,514.62 437.144,514.286 435.5,514.5C 435.643,516.262 435.309,517.929 434.5,519.5C 435.897,521.982 436.731,524.648 437,527.5C 438.381,529.635 439.381,531.968 440,534.5C 440.667,535.833 441.333,535.833 442,534.5C 442.837,536.844 444.171,538.844 446,540.5C 446.47,541.577 446.303,542.577 445.5,543.5C 439.253,536.893 434.587,529.226 431.5,520.5C 431.363,516.821 432.029,513.321 433.5,510C 432.258,506.643 431.424,506.81 431,510.5C 429.164,505.989 427.83,501.323 427,496.5C 425.391,495.853 423.891,495.02 422.5,494C 424.81,493.503 427.143,493.337 429.5,493.5 Z"/></g>
<g><path style="opacity:1" fill="#5d220f" d="M 523.5,516.5 C 517.209,521.429 515.209,527.762 517.5,535.5C 515.564,533.885 514.564,531.718 514.5,529C 514.859,525.428 515.526,521.928 516.5,518.5C 515.178,518.33 514.011,518.663 513,519.5C 512.833,522.5 512.667,525.5 512.5,528.5C 513.909,539.115 514.575,549.782 514.5,560.5C 514.621,549.284 512.121,538.618 507,528.5C 505.601,527.773 504.101,527.273 502.5,527C 506.276,525.395 508.276,522.562 508.5,518.5C 512.712,516.15 517.212,514.484 522,513.5C 524.28,513.894 524.78,514.894 523.5,516.5 Z"/></g>
<g><path style="opacity:1" fill="#692613" d="M 543.5,552.5 C 543.027,551.094 542.027,550.427 540.5,550.5C 530.233,546.731 523.566,539.565 520.5,529C 521.358,525.58 522.692,522.413 524.5,519.5C 525.834,518.348 527.334,517.348 529,516.5C 542.79,524.408 548.124,536.075 545,551.5C 544.617,552.056 544.117,552.389 543.5,552.5 Z"/></g>
<g><path style="opacity:1" fill="#574738" d="M 723.5,520.5 C 723.231,525.264 721.898,529.597 719.5,533.5C 719.528,531.418 718.861,529.584 717.5,528C 718.759,527.077 720.092,526.243 721.5,525.5C 720.58,523.36 721.246,521.693 723.5,520.5 Z"/></g>
<g><path style="opacity:0.19" fill="#e8c1ac" d="M 331.5,527.5 C 344.167,528.167 356.833,528.833 369.5,529.5C 368.5,529.5 367.5,529.5 366.5,529.5C 354.482,529.832 342.482,529.499 330.5,528.5C 330.624,527.893 330.957,527.56 331.5,527.5 Z"/></g>
<g><path style="opacity:1" fill="#884d37" d="M 264.5,517.5 C 265.58,519.045 265.58,520.545 264.5,522C 265.484,523.657 266.484,525.323 267.5,527C 272.5,527.333 277.5,527.667 282.5,528C 285.72,532.526 287.387,537.693 287.5,543.5C 285.827,542.657 284.66,541.324 284,539.5C 283.788,536.242 283.288,533.076 282.5,530C 277.5,529.667 272.5,529.333 267.5,529C 264.484,527.471 263.151,524.971 263.5,521.5C 263.511,519.955 263.844,518.622 264.5,517.5 Z"/></g>
<g><path style="opacity:1" fill="#905b47" d="M 767.5,528.5 C 767.145,533.55 765.812,538.217 763.5,542.5C 763.336,539.813 763.503,537.146 764,534.5C 764.739,532.111 765.905,530.111 767.5,528.5 Z"/></g>
<g><path style="opacity:0.949" fill="#ae7360" d="M 366.5,529.5 C 367.5,529.5 368.5,529.5 369.5,529.5C 376.562,531.843 378.729,536.51 376,543.5C 375.184,544.823 374.017,545.489 372.5,545.5C 372.5,544.833 372.167,544.5 371.5,544.5C 374.138,541.712 374.971,538.379 374,534.5C 371.521,532.686 369.021,531.019 366.5,529.5 Z"/></g>
<g><path style="opacity:1" fill="#6d2510" d="M 508.5,518.5 C 508.276,522.562 506.276,525.395 502.5,527C 504.101,527.273 505.601,527.773 507,528.5C 512.121,538.618 514.621,549.284 514.5,560.5C 514.5,560.833 514.5,561.167 514.5,561.5C 499.858,557.205 493.525,547.539 495.5,532.5C 495.5,532.167 495.5,531.833 495.5,531.5C 498.855,526.145 503.188,521.812 508.5,518.5 Z"/></g>
<g><path style="opacity:1" fill="#404433" d="M 651.5,537.5 C 648.92,543.668 645.586,549.335 641.5,554.5C 641.931,551.012 642.931,547.679 644.5,544.5C 644.392,543.558 644.059,542.725 643.5,542C 645.157,541.769 646.491,540.935 647.5,539.5C 648.467,538.194 649.801,537.527 651.5,537.5 Z"/></g>
<g><path style="opacity:1" fill="#a54d37" d="M 319.5,514.5 C 321.924,514.192 324.257,514.526 326.5,515.5C 329.504,518.492 331.17,522.158 331.5,526.5C 331.5,526.833 331.5,527.167 331.5,527.5C 330.957,527.56 330.624,527.893 330.5,528.5C 342.482,529.499 354.482,529.832 366.5,529.5C 369.021,531.019 371.521,532.686 374,534.5C 374.971,538.379 374.138,541.712 371.5,544.5C 354.163,544.667 336.83,544.5 319.5,544C 320.696,543.346 320.696,542.846 319.5,542.5C 317.167,543.5 316.5,542.833 317.5,540.5C 316.271,539.719 314.938,539.219 313.5,539C 317.652,535.594 316.986,533.261 311.5,532C 313.929,531.549 314.096,530.715 312,529.5C 310.456,532.264 309.289,532.097 308.5,529C 312.134,528.548 313.301,526.714 312,523.5C 312.667,524.167 313.333,524.833 314,525.5C 314.667,523.833 314.667,522.167 314,520.5C 313.667,521.167 313.333,521.833 313,522.5C 311.956,521.377 311.29,520.044 311,518.5C 310.667,519.833 310.333,521.167 310,522.5C 308.613,520.699 307.113,520.032 305.5,520.5C 306.833,519.833 308.167,519.167 309.5,518.5C 311.022,516.844 310.689,515.677 308.5,515C 312.152,514.501 315.818,514.335 319.5,514.5 Z"/></g>
<g><path style="opacity:0.133" fill="#b7b6a3" d="M 716.5,541.5 C 716.573,543.027 715.906,544.027 714.5,544.5C 714.427,542.973 715.094,541.973 716.5,541.5 Z"/></g>
<g><path style="opacity:1" fill="#9f553e" d="M 523.5,516.5 C 523.263,517.791 523.596,518.791 524.5,519.5C 522.692,522.413 521.358,525.58 520.5,529C 523.566,539.565 530.233,546.731 540.5,550.5C 540.175,552.132 539.175,553.132 537.5,553.5C 527.974,550.639 521.307,544.639 517.5,535.5C 515.209,527.762 517.209,521.429 523.5,516.5 Z"/></g>
<g><path style="opacity:0.173" fill="#aeaea3" d="M 714.5,544.5 C 714.262,546.404 713.262,547.738 711.5,548.5C 711.738,546.596 712.738,545.262 714.5,544.5 Z"/></g>
<g><path style="opacity:1" fill="#70331f" d="M 627.5,500.5 C 620.493,534.324 603.16,561.49 575.5,582C 548.238,600.019 518.904,604.519 487.5,595.5C 489.5,595.5 491.5,595.5 493.5,595.5C 494.167,595.5 494.833,595.5 495.5,595.5C 505.476,598.426 515.81,599.26 526.5,598C 537.498,596.15 548.165,593.65 558.5,590.5C 558.5,589.5 558.5,588.5 558.5,587.5C 559.873,587.657 561.207,587.49 562.5,587C 566.5,585 570.5,583 574.5,581C 576.24,578.417 577.574,576.084 578.5,574C 584.102,572.902 588.102,569.735 590.5,564.5C 591.833,563.833 593.167,563.167 594.5,562.5C 596.182,558.105 599.015,554.772 603,552.5C 606.667,546.833 610.333,541.167 614,535.5C 616.426,529.651 619.093,523.984 622,518.5C 623.158,513.533 624.158,508.533 625,503.5C 625.377,502.058 626.21,501.058 627.5,500.5 Z"/></g>
<g><path style="opacity:1" fill="#371809" d="M 517.5,535.5 C 521.307,544.639 527.974,550.639 537.5,553.5C 539.175,553.132 540.175,552.132 540.5,550.5C 542.027,550.427 543.027,551.094 543.5,552.5C 542.797,554.716 541.464,556.549 539.5,558C 531.61,562.389 523.276,563.555 514.5,561.5C 514.5,561.167 514.5,560.833 514.5,560.5C 514.575,549.782 513.909,539.115 512.5,528.5C 512.667,525.5 512.833,522.5 513,519.5C 514.011,518.663 515.178,518.33 516.5,518.5C 515.526,521.928 514.859,525.428 514.5,529C 514.564,531.718 515.564,533.885 517.5,535.5 Z"/></g>
<g><path style="opacity:1" fill="#a95e46" d="M 736.5,542.5 C 735.833,546.5 735.167,550.5 734.5,554.5C 736.199,554.527 737.533,555.194 738.5,556.5C 734.5,562.5 730.5,568.5 726.5,574.5C 723.482,574.665 720.482,574.498 717.5,574C 718.252,573.329 718.586,572.496 718.5,571.5C 725.268,562.296 731.268,552.629 736.5,542.5 Z"/></g>
<g><path style="opacity:0.902" fill="#a4674f" d="M 392.5,574.5 C 392.5,573.5 392.5,572.5 392.5,571.5C 395.267,570.246 395.933,568.246 394.5,565.5C 391.947,563.106 389.281,560.939 386.5,559C 341.152,558.221 295.819,558.721 250.5,560.5C 243.725,561.395 241.725,565.061 244.5,571.5C 246.045,572.452 247.712,572.785 249.5,572.5C 248.5,573.167 247.5,573.833 246.5,574.5C 242.444,573.235 240.444,570.402 240.5,566C 240.919,562.575 242.586,559.909 245.5,558C 253.274,556.902 261.107,556.402 269,556.5C 308.42,556.483 347.92,556.65 387.5,557C 394.138,558.627 397.305,562.794 397,569.5C 396.004,571.66 394.504,573.327 392.5,574.5 Z"/></g>
<g><path style="opacity:1" fill="#5a4a3d" d="M 707.5,553.5 C 703.327,560.671 697.327,565.671 689.5,568.5C 690.066,566.922 691.066,565.588 692.5,564.5C 693.086,564.709 693.586,565.043 694,565.5C 694.049,562.584 695.216,561.584 697.5,562.5C 698.354,561.478 699.354,560.645 700.5,560C 700.167,559.667 699.833,559.333 699.5,559C 701.883,558.935 702.55,558.102 701.5,556.5C 703.323,555.509 704.823,554.176 706,552.5C 706.383,553.056 706.883,553.389 707.5,553.5 Z"/></g>
<g><path style="opacity:1" fill="#8c341e" d="M 392.5,571.5 C 378.163,571.667 363.829,571.5 349.5,571C 347.868,569.69 346.201,569.19 344.5,569.5C 343.522,569.977 342.689,570.643 342,571.5C 336.396,571.48 330.062,571.146 323,570.5C 319.188,571.146 315.354,571.646 311.5,572C 290.836,572.5 270.169,572.667 249.5,572.5C 247.712,572.785 246.045,572.452 244.5,571.5C 241.725,565.061 243.725,561.395 250.5,560.5C 295.819,558.721 341.152,558.221 386.5,559C 389.281,560.939 391.947,563.106 394.5,565.5C 395.933,568.246 395.267,570.246 392.5,571.5 Z"/></g>
<g><path style="opacity:1" fill="#984d37" d="M 761.5,547.5 C 760.453,550.596 759.12,553.596 757.5,556.5C 770.396,557.821 783.229,557.821 796,556.5C 798.533,556.95 800.7,557.95 802.5,559.5C 800.354,559.122 798.187,558.788 796,558.5C 792.193,560.765 788.027,561.931 783.5,562C 781.43,562.948 779.93,564.448 779,566.5C 778,564.5 777,562.5 776,560.5C 775.667,560.833 775.333,561.167 775,561.5C 773.352,559.972 771.352,559.305 769,559.5C 764.958,559.764 761.125,560.43 757.5,561.5C 755.824,560.817 755.157,559.483 755.5,557.5C 754.167,557.5 752.833,557.5 751.5,557.5C 751.281,556.325 751.614,555.325 752.5,554.5C 753.451,555.326 754.451,555.492 755.5,555C 757.178,552.086 759.178,549.586 761.5,547.5 Z"/></g>
<g><path style="opacity:1" fill="#43483a" d="M 640.5,555.5 C 638.967,559.704 636.3,563.037 632.5,565.5C 633.546,561.916 634.379,558.25 635,554.5C 635.333,556.5 635.667,558.5 636,560.5C 636.47,558.226 637.47,556.226 639,554.5C 639.383,555.056 639.883,555.389 640.5,555.5 Z"/></g>
<g><path style="opacity:1" fill="#923a25" d="M 802.5,559.5 C 802.548,562.313 803.215,564.979 804.5,567.5C 801.89,571.616 798.223,573.116 793.5,572C 794.016,569.967 793.35,569.967 791.5,572C 786.663,572.467 781.83,572.967 777,573.5C 774.051,573.213 771.385,572.88 769,572.5C 767.698,573.085 766.531,573.751 765.5,574.5C 761.833,574.5 758.167,574.5 754.5,574.5C 754.06,571.737 752.727,570.737 750.5,571.5C 748.539,570.152 748.372,568.819 750,567.5C 751.583,569.993 753.083,569.826 754.5,567C 753.167,566.333 753.167,565.667 754.5,565C 753.216,564.316 752.049,564.483 751,565.5C 750.437,564.275 750.77,563.275 752,562.5C 754.184,561.892 756.184,562.559 758,564.5C 758.47,563.423 758.303,562.423 757.5,561.5C 761.125,560.43 764.958,559.764 769,559.5C 771.352,559.305 773.352,559.972 775,561.5C 775.333,561.167 775.667,560.833 776,560.5C 777,562.5 778,564.5 779,566.5C 779.93,564.448 781.43,562.948 783.5,562C 788.027,561.931 792.193,560.765 796,558.5C 798.187,558.788 800.354,559.122 802.5,559.5 Z"/></g>
<g><path style="opacity:1" fill="#361705" d="M 630.5,488.5 C 630.666,494.509 630.499,500.509 630,506.5C 629.333,505.167 628.667,505.167 628,506.5C 624.945,519.612 619.945,531.945 613,543.5C 612.667,545.5 612.333,547.5 612,549.5C 610.89,551.037 609.39,551.703 607.5,551.5C 606.36,555.155 604.193,558.155 601,560.5C 599.923,564.399 598.09,567.899 595.5,571C 590.285,573.219 585.951,576.552 582.5,581C 574.587,585.097 566.587,588.93 558.5,592.5C 558.5,593.5 558.5,594.5 558.5,595.5C 553.758,596.687 549.091,598.187 544.5,600C 529.392,601.052 514.392,601.385 499.5,601C 493.814,599.831 488.147,598.664 482.5,597.5C 480.031,596.683 477.365,596.183 474.5,596C 464.808,589.477 454.474,583.977 443.5,579.5C 441.267,576.787 439.6,573.787 438.5,570.5C 453.055,582.278 469.388,590.611 487.5,595.5C 518.904,604.519 548.238,600.019 575.5,582C 603.16,561.49 620.493,534.324 627.5,500.5C 628.688,496.448 629.688,492.448 630.5,488.5 Z"/></g>
<g><path style="opacity:1" fill="#ae684f" d="M 445.5,543.5 C 447.262,543.357 448.929,543.691 450.5,544.5C 452.553,548.553 455.553,551.553 459.5,553.5C 461.674,554.893 463.507,554.56 465,552.5C 465.483,553.448 465.649,554.448 465.5,555.5C 467.86,554.084 469.86,554.417 471.5,556.5C 470.354,559.3 470.354,562.133 471.5,565C 470.322,571.187 466.655,573.853 460.5,573C 458.102,570.155 455.102,568.321 451.5,567.5C 449.867,564.203 447.2,562.536 443.5,562.5C 441.858,559.181 440.191,555.847 438.5,552.5C 443.706,557.873 449.373,562.706 455.5,567C 458.055,568.444 460.721,569.611 463.5,570.5C 468.452,569.046 469.619,566.046 467,561.5C 458.745,556.791 451.578,550.791 445.5,543.5 Z"/></g>
<g><path style="opacity:1" fill="#904a35" d="M 392.5,571.5 C 392.5,572.5 392.5,573.5 392.5,574.5C 343.833,575.833 295.167,575.833 246.5,574.5C 247.5,573.833 248.5,573.167 249.5,572.5C 270.169,572.667 290.836,572.5 311.5,572C 315.354,571.646 319.188,571.146 323,570.5C 330.062,571.146 336.396,571.48 342,571.5C 342.689,570.643 343.522,569.977 344.5,569.5C 346.201,569.19 347.868,569.69 349.5,571C 363.829,571.5 378.163,571.667 392.5,571.5 Z"/></g>
<g><path style="opacity:1" fill="#5a5e50" d="M 629.5,570.5 C 627.833,572.833 625.833,574.833 623.5,576.5C 623.5,575.167 623.5,573.833 623.5,572.5C 625.685,572.296 627.685,571.63 629.5,570.5 Z"/></g>
<g><path style="opacity:1" fill="#813f2c" d="M 802.5,559.5 C 806.007,562.528 806.84,566.195 805,570.5C 803.362,572.734 801.195,574.067 798.5,574.5C 787.5,574.5 776.5,574.5 765.5,574.5C 766.531,573.751 767.698,573.085 769,572.5C 771.385,572.88 774.051,573.213 777,573.5C 781.83,572.967 786.663,572.467 791.5,572C 793.35,569.967 794.016,569.967 793.5,572C 798.223,573.116 801.89,571.616 804.5,567.5C 803.215,564.979 802.548,562.313 802.5,559.5 Z"/></g>
<g><path style="opacity:0.287" fill="#e5b5a3" d="M 718.5,571.5 C 718.586,572.496 718.252,573.329 717.5,574C 720.482,574.498 723.482,574.665 726.5,574.5C 735.833,574.5 745.167,574.5 754.5,574.5C 758.167,574.5 761.833,574.5 765.5,574.5C 776.5,574.5 787.5,574.5 798.5,574.5C 771.338,575.498 744.005,575.831 716.5,575.5C 716.229,573.62 716.896,572.287 718.5,571.5 Z"/></g>
<g><path style="opacity:1" fill="#352216" d="M 369.5,591.5 C 382.556,590.382 388.056,596.048 386,608.5C 378.618,617.818 371.285,617.818 364,608.5C 361.15,601.219 362.983,595.553 369.5,591.5 Z"/></g>
<g><path style="opacity:1" fill="#352014" d="M 668.5,591.5 C 680.372,590.537 685.539,595.87 684,607.5C 679.021,614.99 672.521,616.49 664.5,612C 658.472,603.663 659.805,596.829 668.5,591.5 Z"/></g>
<g><path style="opacity:1" fill="#321f12" d="M 768.5,604.5 C 768.877,606.258 769.544,607.925 770.5,609.5C 769.45,611.102 770.117,611.935 772.5,612C 773.742,613.875 775.076,615.709 776.5,617.5C 775.253,619.042 775.253,620.542 776.5,622C 775.095,623.269 773.429,623.769 771.5,623.5C 771.5,624.833 771.5,626.167 771.5,627.5C 768.802,627.55 766.636,626.55 765,624.5C 764.667,624.833 764.333,625.167 764,625.5C 762.6,624.252 761.1,623.252 759.5,622.5C 749.035,612.053 737.035,609.886 723.5,616C 716.203,622.338 714.703,629.838 719,638.5C 721.653,641.194 724.82,642.027 728.5,641C 731.322,634.892 735.988,632.892 742.5,635C 750.666,643.238 749.999,650.905 740.5,658C 720.777,665.553 706.61,659.72 698,640.5C 694.052,614.565 704.885,598.732 730.5,593C 744.984,591.282 757.651,595.115 768.5,604.5 Z"/></g>
<g><path style="opacity:1" fill="#321f13" d="M 346.5,634.5 C 345.262,636.214 344.595,638.214 344.5,640.5C 338.897,656.567 327.564,663.401 310.5,661C 300.084,657.943 295.251,651.11 296,640.5C 302.117,631.253 308.283,631.253 314.5,640.5C 319.776,642.281 323.609,640.614 326,635.5C 328.716,625.762 325.549,618.596 316.5,614C 303.625,610.344 292.625,613.511 283.5,623.5C 282.086,621.402 282.752,620.402 285.5,620.5C 285.762,619.022 285.429,617.689 284.5,616.5C 283.549,617.326 282.549,617.492 281.5,617C 283.25,615.681 285.25,615.181 287.5,615.5C 287.244,613.208 287.577,611.041 288.5,609C 286.767,606.725 284.933,604.558 283,602.5C 280.692,603.991 278.192,604.991 275.5,605.5C 285.656,595.366 297.989,591.2 312.5,593C 336.226,596.877 347.56,610.711 346.5,634.5 Z"/></g>
<g><path style="opacity:1" fill="#746254" d="M 554.5,616.5 C 551.411,617.785 548.078,618.451 544.5,618.5C 545.263,617.732 546.263,617.232 547.5,617C 545.405,616.444 545.238,615.944 547,615.5C 549.434,616.322 551.934,616.656 554.5,616.5 Z"/></g>
<g><path style="opacity:0.718" fill="#938676" d="M 490.5,616.5 C 493.781,616.42 496.781,617.087 499.5,618.5C 496.219,618.58 493.219,617.913 490.5,616.5 Z"/></g>
<g><path style="opacity:1" fill="#695a50" d="M 281.5,625.5 C 280.157,628.543 278.823,631.543 277.5,634.5C 278.237,631.762 278.237,629.095 277.5,626.5C 278.169,623.972 279.002,623.972 280,626.5C 280.383,625.944 280.883,625.611 281.5,625.5 Z"/></g>
<g><path style="opacity:0.561" fill="#948375" d="M 346.5,634.5 C 346.741,636.898 346.074,638.898 344.5,640.5C 344.595,638.214 345.262,636.214 346.5,634.5 Z"/></g>
<g><path style="opacity:0.824" fill="#928679" d="M 277.5,635.5 C 277.198,638.373 276.531,641.039 275.5,643.5C 275.111,640.447 275.777,637.78 277.5,635.5 Z"/></g>
<g><path style="opacity:1" fill="#331f13" d="M 567.5,651.5 C 564.507,650.865 561.507,650.699 558.5,651C 559.5,651.333 560.5,651.667 561.5,652C 560.584,652.278 559.918,652.778 559.5,653.5C 558.833,653.5 558.167,653.5 557.5,653.5C 553.594,653.024 550.261,653.024 547.5,653.5C 547.483,654.394 547.149,655.394 546.5,656.5C 538.558,658.422 530.558,660.088 522.5,661.5C 520.801,661.66 519.134,661.494 517.5,661C 521.226,659.957 520.893,659.457 516.5,659.5C 516.5,660.5 516.5,661.5 516.5,662.5C 515.209,662.263 514.209,662.596 513.5,663.5C 507.077,665.451 500.411,666.785 493.5,667.5C 490.219,667.42 487.219,668.087 484.5,669.5C 470.389,672.795 456.056,674.461 441.5,674.5C 444.421,673.806 447.421,672.973 450.5,672C 448.26,671.023 445.927,670.523 443.5,670.5C 443.5,669.5 443.5,668.5 443.5,667.5C 444.833,667.5 446.167,667.5 447.5,667.5C 447.859,665.234 447.192,663.401 445.5,662C 447.878,661.026 447.544,660.359 444.5,660C 442.559,659.257 440.726,659.424 439,660.5C 437.902,659.033 436.402,658.199 434.5,658C 430.527,657.723 426.694,657.556 423,657.5C 421.511,658.424 421.344,659.424 422.5,660.5C 430.413,661.975 430.413,662.475 422.5,662C 420.9,660.392 419.567,658.559 418.5,656.5C 420.045,655.548 421.712,655.215 423.5,655.5C 439.292,656.023 454.958,654.856 470.5,652C 513.914,643.384 557.247,634.384 600.5,625C 619.021,621.215 637.354,620.882 655.5,624C 665.807,625.736 674.64,630.236 682,637.5C 686.295,646.244 683.628,651.578 674,653.5C 652.712,641.943 630.212,638.776 606.5,644C 593.522,646.696 580.522,649.196 567.5,651.5 Z"/></g>
<g><path style="opacity:1" fill="#331f12" d="M 423.5,655.5 C 421.712,655.215 420.045,655.548 418.5,656.5C 419.567,658.559 420.9,660.392 422.5,662C 430.413,662.475 430.413,661.975 422.5,660.5C 421.344,659.424 421.511,658.424 423,657.5C 426.694,657.556 430.527,657.723 434.5,658C 436.402,658.199 437.902,659.033 439,660.5C 440.726,659.424 442.559,659.257 444.5,660C 447.544,660.359 447.878,661.026 445.5,662C 447.192,663.401 447.859,665.234 447.5,667.5C 446.167,667.5 444.833,667.5 443.5,667.5C 443.5,668.5 443.5,669.5 443.5,670.5C 445.927,670.523 448.26,671.023 450.5,672C 447.421,672.973 444.421,673.806 441.5,674.5C 430.163,676.335 419.163,675.001 408.5,670.5C 406.255,666.168 402.588,663.834 397.5,663.5C 392.238,659.243 388.572,653.909 386.5,647.5C 386.131,643.987 384.798,643.653 382.5,646.5C 378.668,649.166 374.501,651.166 370,652.5C 360.465,651.145 357.798,646.145 362,637.5C 373.806,627.107 387.64,620.941 403.5,619C 416.903,616.634 429.903,617.968 442.5,623C 449.817,631.881 447.817,637.714 436.5,640.5C 429.196,639.533 421.862,638.866 414.5,638.5C 411.045,638.421 407.712,638.921 404.5,640C 408.038,648.715 414.372,653.881 423.5,655.5 Z"/></g>
<g><path style="opacity:0.957" fill="#8a786b" d="M 386.5,647.5 C 385.292,646.766 383.959,646.433 382.5,646.5C 384.798,643.653 386.131,643.987 386.5,647.5 Z"/></g>
<g><path style="opacity:0.967" fill="#615341" d="M 567.5,651.5 C 565.039,652.531 562.373,653.198 559.5,653.5C 559.918,652.778 560.584,652.278 561.5,652C 560.5,651.667 559.5,651.333 558.5,651C 561.507,650.699 564.507,650.865 567.5,651.5 Z"/></g>
<g><path style="opacity:0.506" fill="#958168" d="M 256.5,640.5 C 256.427,648.854 256.76,657.188 257.5,665.5C 256.046,660.577 255.379,655.411 255.5,650C 255.502,646.648 255.835,643.482 256.5,640.5 Z"/></g>
<g><path style="opacity:1" fill="#6b5c48" d="M 557.5,653.5 C 554.063,654.945 550.397,655.945 546.5,656.5C 547.149,655.394 547.483,654.394 547.5,653.5C 550.261,653.024 553.594,653.024 557.5,653.5 Z"/></g>
<g><path style="opacity:1" fill="#675545" d="M 522.5,661.5 C 519.727,662.657 516.727,663.324 513.5,663.5C 514.209,662.596 515.209,662.263 516.5,662.5C 516.5,661.5 516.5,660.5 516.5,659.5C 520.893,659.457 521.226,659.957 517.5,661C 519.134,661.494 520.801,661.66 522.5,661.5 Z"/></g>
<g><path style="opacity:0.999" fill="#3b291e" d="M 631.5,655.5 C 645.487,659.456 648.32,667.456 640,679.5C 635.029,685.902 628.529,689.568 620.5,690.5C 620.918,689.778 621.584,689.278 622.5,689C 622.167,688.667 621.833,688.333 621.5,688C 623.126,688.195 624.793,688.195 626.5,688C 625.359,687.259 625.359,686.425 626.5,685.5C 628.341,684.77 630.175,684.103 632,683.5C 634.569,678.893 637.069,674.227 639.5,669.5C 638.726,668.289 637.893,668.289 637,669.5C 636.535,668.069 635.701,666.903 634.5,666C 635.428,665.612 636.095,664.945 636.5,664C 636.108,662.989 635.441,662.489 634.5,662.5C 636.922,660.952 636.922,659.286 634.5,657.5C 632.863,658.444 631.863,657.777 631.5,655.5 Z"/></g>
<g><path style="opacity:0.963" fill="#564536" d="M 397.5,663.5 C 402.588,663.834 406.255,666.168 408.5,670.5C 404.024,669.343 400.358,667.01 397.5,663.5 Z"/></g>
<g><path style="opacity:0.055" fill="#cabbab" d="M 493.5,667.5 C 490.781,668.913 487.781,669.58 484.5,669.5C 487.219,668.087 490.219,667.42 493.5,667.5 Z"/></g>
<g><path style="opacity:1" fill="#311d10" d="M 631.5,655.5 C 631.863,657.777 632.863,658.444 634.5,657.5C 636.922,659.286 636.922,660.952 634.5,662.5C 635.441,662.489 636.108,662.989 636.5,664C 636.095,664.945 635.428,665.612 634.5,666C 635.701,666.903 636.535,668.069 637,669.5C 637.893,668.289 638.726,668.289 639.5,669.5C 637.069,674.227 634.569,678.893 632,683.5C 630.175,684.103 628.341,684.77 626.5,685.5C 625.359,686.425 625.359,687.259 626.5,688C 624.793,688.195 623.126,688.195 621.5,688C 621.833,688.333 622.167,688.667 622.5,689C 621.584,689.278 620.918,689.778 620.5,690.5C 612.578,691.302 604.578,691.802 596.5,692C 594.886,694.127 592.886,695.627 590.5,696.5C 585.871,697.238 581.537,698.738 577.5,701C 574.167,701.333 570.833,701.667 567.5,702C 570.167,702.333 572.833,702.667 575.5,703C 572.183,703.498 568.85,703.665 565.5,703.5C 558.468,699.889 556.968,694.556 561,687.5C 564.984,685.282 569.15,683.449 573.5,682C 581.379,672.444 590.713,664.777 601.5,659C 611.246,655.249 621.246,654.083 631.5,655.5 Z"/></g>
<g><path style="opacity:1" fill="#8a523d" d="M 525.5,702.5 C 530.103,703.383 534.77,703.717 539.5,703.5C 540.196,700.68 541.196,698.013 542.5,695.5C 540.886,687.853 536.22,685.02 528.5,687C 527.54,688.419 526.707,689.919 526,691.5C 525.23,690.402 524.397,690.402 523.5,691.5C 525.155,686.855 528.488,684.521 533.5,684.5C 542.403,685.624 545.903,690.624 544,699.5C 541.929,703.953 538.429,705.953 533.5,705.5C 530.174,705.927 527.508,704.927 525.5,702.5 Z"/></g>
<g><path style="opacity:1" fill="#331f13" d="M 768.5,604.5 C 782.955,618.682 789.455,636.016 788,656.5C 785.06,683.917 770.894,702.75 745.5,713C 730.051,717.228 715.384,714.895 701.5,706C 696.441,702.388 694.274,697.554 695,691.5C 697.017,686.076 700.85,684.242 706.5,686C 723.707,699.287 740.207,698.454 756,683.5C 771.188,663.858 772.355,643.525 759.5,622.5C 761.1,623.252 762.6,624.252 764,625.5C 764.333,625.167 764.667,624.833 765,624.5C 766.636,626.55 768.802,627.55 771.5,627.5C 771.5,626.167 771.5,624.833 771.5,623.5C 773.429,623.769 775.095,623.269 776.5,622C 775.253,620.542 775.253,619.042 776.5,617.5C 775.076,615.709 773.742,613.875 772.5,612C 770.117,611.935 769.45,611.102 770.5,609.5C 769.544,607.925 768.877,606.258 768.5,604.5 Z"/></g>
<g><path style="opacity:1" fill="#321d10" d="M 283.5,623.5 C 283.167,624.5 282.5,625.167 281.5,625.5C 280.883,625.611 280.383,625.944 280,626.5C 279.002,623.972 278.169,623.972 277.5,626.5C 278.237,629.095 278.237,631.762 277.5,634.5C 277.5,634.833 277.5,635.167 277.5,635.5C 275.777,637.78 275.111,640.447 275.5,643.5C 273.847,659.577 278.347,673.577 289,685.5C 300.426,694.986 312.926,697.486 326.5,693C 330.072,691.431 333.072,689.098 335.5,686C 342.635,683.759 347.301,686.592 349.5,694.5C 348.791,700.946 345.457,705.279 339.5,707.5C 338.85,707.196 338.183,706.863 337.5,706.5C 335.78,707.934 333.78,708.767 331.5,709C 329.93,710.678 328.263,712.178 326.5,713.5C 299.026,718.672 278.192,708.672 264,683.5C 260.608,677.927 258.442,671.927 257.5,665.5C 256.76,657.188 256.427,648.854 256.5,640.5C 258.459,626.235 264.792,614.568 275.5,605.5C 278.192,604.991 280.692,603.991 283,602.5C 284.933,604.558 286.767,606.725 288.5,609C 287.577,611.041 287.244,613.208 287.5,615.5C 285.25,615.181 283.25,615.681 281.5,617C 282.549,617.492 283.549,617.326 284.5,616.5C 285.429,617.689 285.762,619.022 285.5,620.5C 282.752,620.402 282.086,621.402 283.5,623.5 Z"/></g>
<g><path style="opacity:1" fill="#332012" d="M 641.5,716.5 C 641.357,714.738 641.691,713.071 642.5,711.5C 642.154,710.304 641.654,710.304 641,711.5C 640.502,708.518 640.335,705.518 640.5,702.5C 643.231,691.119 650.564,685.119 662.5,684.5C 671.599,685.714 678.265,690.381 682.5,698.5C 689.667,712.833 696.833,727.167 704,741.5C 707.654,752.578 705.487,761.745 697.5,769C 682.155,777.555 669.989,774.389 661,759.5C 654.398,745.184 647.898,730.851 641.5,716.5 Z M 660.5,702.5 C 664.17,702.327 666.67,703.993 668,707.5C 674.833,721.833 681.667,736.167 688.5,750.5C 687.079,755.077 684.079,756.577 679.5,755C 671.147,740.793 663.981,725.96 658,710.5C 657.023,707.183 657.856,704.516 660.5,702.5 Z"/></g>
<g><path style="opacity:1" fill="#883722" d="M 525.5,702.5 C 522.598,699.173 521.931,695.506 523.5,691.5C 524.397,690.402 525.23,690.402 526,691.5C 526.707,689.919 527.54,688.419 528.5,687C 536.22,685.02 540.886,687.853 542.5,695.5C 541.196,698.013 540.196,700.68 539.5,703.5C 534.77,703.717 530.103,703.383 525.5,702.5 Z"/></g>
<g><path style="opacity:1" fill="#311f12" d="M 369.5,716.5 C 368.094,716.973 367.427,717.973 367.5,719.5C 366.958,722.912 365.625,725.912 363.5,728.5C 360.793,731.247 359.127,734.58 358.5,738.5C 356.45,742.106 354.784,745.94 353.5,750C 355.152,754.826 358.485,756.493 363.5,755C 366.167,751.667 368.833,748.333 371.5,745C 379.988,743.494 384.155,746.994 384,755.5C 383.392,757.066 382.558,758.4 381.5,759.5C 380.094,759.973 379.427,760.973 379.5,762.5C 369.112,775.174 357.112,776.841 343.5,767.5C 336.08,759.171 334.58,749.838 339,739.5C 346,726.167 353,712.833 360,699.5C 368.872,683.494 381.372,679.661 397.5,688C 406.672,696.883 407.838,706.717 401,717.5C 396.366,721.399 391.7,721.399 387,717.5C 386.125,716.127 385.625,714.627 385.5,713C 386.241,710.194 387.241,707.527 388.5,705C 385.956,698.254 382.289,697.754 377.5,703.5C 375.059,708.065 372.392,712.398 369.5,716.5 Z"/></g>
<g><path style="opacity:1" fill="#884632" d="M 474.5,686.5 C 484.325,685.342 494.325,685.175 504.5,686C 508.939,688.976 510.439,693.143 509,698.5C 508.052,700.57 506.552,702.07 504.5,703C 494.833,703.667 485.167,703.667 475.5,703C 469.241,699.044 468.074,693.878 472,687.5C 472.671,686.748 473.504,686.414 474.5,686.5 Z"/></g>
<g><path style="opacity:1" fill="#863420" d="M 474.5,686.5 C 484.698,685.849 494.698,686.849 504.5,689.5C 506.229,691.851 506.896,694.518 506.5,697.5C 502.784,698.319 499.118,698.319 495.5,697.5C 493.909,699.984 491.575,700.984 488.5,700.5C 485.433,700.393 482.433,699.893 479.5,699C 478.638,696.266 477.805,696.099 477,698.5C 475.644,697.62 474.144,697.286 472.5,697.5C 472.659,693.709 473.325,690.042 474.5,686.5 Z"/></g>
<g><path style="opacity:1" fill="#4e3c2f" d="M 590.5,696.5 C 584.932,701.31 578.432,704.31 571,705.5C 569.052,704.891 567.218,704.224 565.5,703.5C 568.85,703.665 572.183,703.498 575.5,703C 572.833,702.667 570.167,702.333 567.5,702C 570.833,701.667 574.167,701.333 577.5,701C 581.537,698.738 585.871,697.238 590.5,696.5 Z"/></g>
<g><path style="opacity:1" fill="#564638" d="M 339.5,707.5 C 335.856,710.82 331.522,712.82 326.5,713.5C 328.263,712.178 329.93,710.678 331.5,709C 333.78,708.767 335.78,707.934 337.5,706.5C 338.183,706.863 338.85,707.196 339.5,707.5 Z"/></g>
<g><path style="opacity:0.987" fill="#6b5a48" d="M 640.5,702.5 C 640.335,705.518 640.502,708.518 641,711.5C 641.654,710.304 642.154,710.304 642.5,711.5C 641.691,713.071 641.357,714.738 641.5,716.5C 640.027,713.983 639.36,711.15 639.5,708C 639.506,705.967 639.839,704.134 640.5,702.5 Z"/></g>
<g><path style="opacity:0.024" fill="#b5b2a8" d="M 369.5,716.5 C 369.573,718.027 368.906,719.027 367.5,719.5C 367.427,717.973 368.094,716.973 369.5,716.5 Z"/></g>
<g><path style="opacity:0.792" fill="#584839" d="M 513.5,720.5 C 525.5,719.167 537.5,719.167 549.5,720.5C 537.679,720.571 525.679,720.571 513.5,720.5 Z"/></g>
<g><path style="opacity:0.953" fill="#736756" d="M 552.5,723.5 C 555.301,733.042 551.634,737.042 541.5,735.5C 544.023,734.746 546.689,734.08 549.5,733.5C 551.517,730.45 552.517,727.117 552.5,723.5 Z"/></g>
<g><path style="opacity:0.278" fill="#b9b2a1" d="M 363.5,728.5 C 362.341,732.151 360.674,735.485 358.5,738.5C 359.127,734.58 360.793,731.247 363.5,728.5 Z"/></g>
<g><path style="opacity:1" fill="#5e4c3d" d="M 587.5,722.5 C 587.335,726.182 587.501,729.848 588,733.5C 588.333,732.833 588.667,732.167 589,731.5C 590.078,735.229 590.245,738.896 589.5,742.5C 586.627,736.015 585.96,729.348 587.5,722.5 Z"/></g>
<g><path style="opacity:1" fill="#322013" d="M 589.5,742.5 C 590.245,738.896 590.078,735.229 589,731.5C 588.667,732.167 588.333,732.833 588,733.5C 587.501,729.848 587.335,726.182 587.5,722.5C 588.4,718.419 590.4,714.919 593.5,712C 607.659,703.507 619.159,706.341 628,720.5C 631.886,731.936 628.053,736.436 616.5,734C 615.478,731.455 614.312,728.955 613,726.5C 610.791,724.294 608.291,723.96 605.5,725.5C 604.16,726.688 603.493,728.188 603.5,730C 607.659,748.142 612.826,765.975 619,783.5C 622.371,786.017 625.705,786.017 629,783.5C 628.58,777.724 627.413,772.058 625.5,766.5C 613.938,763.328 612.604,757.828 621.5,750C 625.175,748.108 629.009,746.608 633,745.5C 634.763,745.975 636.43,746.642 638,747.5C 641.3,758.365 644.133,769.365 646.5,780.5C 643.056,799.554 632.056,806.387 613.5,801C 608.191,798.233 604.358,794.067 602,788.5C 597.318,773.291 593.152,757.958 589.5,742.5 Z"/></g>
<g><path style="opacity:0.91" fill="#867766" d="M 464.5,732.5 C 464.844,737.122 464.177,741.455 462.5,745.5C 462.77,740.972 463.437,736.639 464.5,732.5 Z"/></g>
<g><path style="opacity:0.502" fill="#978977" d="M 514.5,734.5 C 517.5,734.5 520.5,734.5 523.5,734.5C 523.5,754.167 523.5,773.833 523.5,793.5C 523.5,800.167 523.5,806.833 523.5,813.5C 523.5,814.5 523.5,815.5 523.5,816.5C 522.502,789.672 522.169,762.672 522.5,735.5C 519.615,735.806 516.948,735.473 514.5,734.5 Z"/></g>
<g><path style="opacity:1" fill="#312013" d="M 423.5,799.5 C 418.833,799.5 414.167,799.5 409.5,799.5C 399.968,796.115 394.634,789.282 393.5,779C 399.404,756.62 406.904,734.787 416,713.5C 426.475,701.521 437.808,700.521 450,710.5C 453.51,714.868 455.344,719.868 455.5,725.5C 450.731,746.911 444.564,767.911 437,788.5C 434.157,794.175 429.657,797.842 423.5,799.5 Z M 415.5,762.5 C 417.074,760.898 417.741,758.898 417.5,756.5C 421.337,746.328 425.004,735.995 428.5,725.5C 429.906,725.027 430.573,724.027 430.5,722.5C 435.056,720.612 437.722,722.112 438.5,727C 433.567,744.233 428.4,761.4 423,778.5C 420.947,782.292 417.781,783.458 413.5,782C 411.607,779.083 411.107,775.916 412,772.5C 413.47,769.256 414.637,765.923 415.5,762.5 Z"/></g>
<g><path style="opacity:0.016" fill="#d8b6ab" d="M 430.5,722.5 C 430.573,724.027 429.906,725.027 428.5,725.5C 428.427,723.973 429.094,722.973 430.5,722.5 Z"/></g>
<g><path style="opacity:1" fill="#321f13" d="M 485.5,750.5 C 485.192,752.924 485.526,755.257 486.5,757.5C 487.452,755.955 487.785,754.288 487.5,752.5C 487.679,742.054 488.846,731.721 491,721.5C 495.09,716.517 499.59,716.183 504.5,720.5C 505.167,722.167 505.833,723.833 506.5,725.5C 502.63,755.83 498.797,786.164 495,816.5C 490,821.833 485,821.833 480,816.5C 477.373,803.609 475.539,790.609 474.5,777.5C 474.607,775.621 474.107,775.288 473,776.5C 472.505,778.473 472.338,780.473 472.5,782.5C 471.991,792.376 470.324,802.043 467.5,811.5C 462.419,815.658 457.586,815.325 453,810.5C 455.294,788.734 458.46,767.068 462.5,745.5C 464.177,741.455 464.844,737.122 464.5,732.5C 464.49,726.886 465.657,721.553 468,716.5C 471.145,712.847 474.645,712.514 478.5,715.5C 480.774,717.713 482.274,720.379 483,723.5C 484.164,732.476 484.997,741.476 485.5,750.5 Z"/></g>
<g><path style="opacity:0.455" fill="#af9c8d" d="M 485.5,750.5 C 486.167,751.167 486.833,751.833 487.5,752.5C 487.785,754.288 487.452,755.955 486.5,757.5C 485.526,755.257 485.192,752.924 485.5,750.5 Z"/></g>
<g><path style="opacity:0.031" fill="#c5bba6" d="M 417.5,756.5 C 417.741,758.898 417.074,760.898 415.5,762.5C 415.595,760.214 416.262,758.214 417.5,756.5 Z"/></g>
<g><path style="opacity:0.008" fill="#cec6ba" d="M 381.5,759.5 C 381.573,761.027 380.906,762.027 379.5,762.5C 379.427,760.973 380.094,759.973 381.5,759.5 Z"/></g>
<g><path style="opacity:1" fill="#321e12" d="M 513.5,720.5 C 525.679,720.571 537.679,720.571 549.5,720.5C 551.5,720.5 552.5,721.5 552.5,723.5C 552.517,727.117 551.517,730.45 549.5,733.5C 546.689,734.08 544.023,734.746 541.5,735.5C 540.883,735.611 540.383,735.944 540,736.5C 539.667,763.5 539.333,790.5 539,817.5C 535.907,823.565 531.407,824.898 525.5,821.5C 524.05,820.15 523.383,818.484 523.5,816.5C 523.5,815.5 523.5,814.5 523.5,813.5C 525.057,812.534 526.39,811.2 527.5,809.5C 527.154,808.304 526.654,808.304 526,809.5C 525.598,808.128 525.098,806.795 524.5,805.5C 526.991,804.459 526.991,803.626 524.5,803C 525.833,802.333 525.833,801.667 524.5,801C 525.667,800.5 526.5,799.667 527,798.5C 527.309,799.766 527.809,800.933 528.5,802C 527.396,803.131 527.729,803.965 529.5,804.5C 531.991,804.091 533.991,802.924 535.5,801C 534.672,800.085 533.672,799.419 532.5,799C 533.167,798.667 533.833,798.333 534.5,798C 533.151,797.228 532.318,796.061 532,794.5C 530.333,794.5 528.667,794.5 527,794.5C 524.917,793.035 525.084,792.035 527.5,791.5C 528.929,793.083 530.429,793.75 532,793.5C 532.167,793 532.333,792.5 532.5,792C 531.264,790.144 531.264,788.311 532.5,786.5C 530.535,784.481 530.369,782.481 532,780.5C 533.724,783.17 534.891,782.837 535.5,779.5C 532.663,777.089 530.997,774.422 530.5,771.5C 529.749,772.376 529.249,773.376 529,774.5C 528.667,774.167 528.333,773.833 528,773.5C 528,775.5 528,777.5 528,779.5C 527.576,777.385 526.409,776.552 524.5,777C 524.999,780.541 525.999,784.208 527.5,788C 526.584,788.374 525.75,788.874 525,789.5C 524.79,791.058 524.29,792.391 523.5,793.5C 523.5,773.833 523.5,754.167 523.5,734.5C 520.5,734.5 517.5,734.5 514.5,734.5C 510.451,733.192 508.451,730.359 508.5,726C 508.981,723.022 510.647,721.189 513.5,720.5 Z"/></g>
<g><path style="opacity:0.6" fill="#b09a8e" d="M 474.5,777.5 C 473.833,779.167 473.167,780.833 472.5,782.5C 472.338,780.473 472.505,778.473 473,776.5C 474.107,775.288 474.607,775.621 474.5,777.5 Z"/></g>
<g><path style="opacity:1" fill="#342115" d="M 562.5,716.5 C 567.635,715.426 571.468,717.093 574,721.5C 578.287,752.119 581.287,783.119 583,814.5C 579.604,818.203 575.437,819.369 570.5,818C 568.19,816.363 566.69,814.196 566,811.5C 563.243,783.854 560.743,756.188 558.5,728.5C 558.667,725.5 558.833,722.5 559,719.5C 560.145,718.364 561.312,717.364 562.5,716.5 Z"/></g>
<g><path style="opacity:1" fill="#3e2717" d="M 523.5,813.5 C 523.5,806.833 523.5,800.167 523.5,793.5C 524.29,792.391 524.79,791.058 525,789.5C 525.75,788.874 526.584,788.374 527.5,788C 525.999,784.208 524.999,780.541 524.5,777C 526.409,776.552 527.576,777.385 528,779.5C 528,777.5 528,775.5 528,773.5C 528.333,773.833 528.667,774.167 529,774.5C 529.249,773.376 529.749,772.376 530.5,771.5C 530.997,774.422 532.663,777.089 535.5,779.5C 534.891,782.837 533.724,783.17 532,780.5C 530.369,782.481 530.535,784.481 532.5,786.5C 531.264,788.311 531.264,790.144 532.5,792C 532.333,792.5 532.167,793 532,793.5C 530.429,793.75 528.929,793.083 527.5,791.5C 525.084,792.035 524.917,793.035 527,794.5C 528.667,794.5 530.333,794.5 532,794.5C 532.318,796.061 533.151,797.228 534.5,798C 533.833,798.333 533.167,798.667 532.5,799C 533.672,799.419 534.672,800.085 535.5,801C 533.991,802.924 531.991,804.091 529.5,804.5C 527.729,803.965 527.396,803.131 528.5,802C 527.809,800.933 527.309,799.766 527,798.5C 526.5,799.667 525.667,800.5 524.5,801C 525.833,801.667 525.833,802.333 524.5,803C 526.991,803.626 526.991,804.459 524.5,805.5C 525.098,806.795 525.598,808.128 526,809.5C 526.654,808.304 527.154,808.304 527.5,809.5C 526.39,811.2 525.057,812.534 523.5,813.5 Z"/></g>
<g><path style="opacity:0.906" fill="#7e6b55" d="M 409.5,799.5 C 414.167,799.5 418.833,799.5 423.5,799.5C 418.904,801.545 414.238,801.545 409.5,799.5 Z"/></g>
</svg>
